<mxfile host="app.diagrams.net" modified="2024-01-06T07:58:49.890Z" agent="Mozilla/5.0 (Macintosh; Intel Mac OS X 10_15_7) AppleWebKit/537.36 (KHTML, like Gecko) Chrome/120.0.0.0 Safari/537.36" etag="rqtj_9bn5tjf_Cm0uj8l" version="22.1.16" type="device">
  <diagram name="ページ1" id="3NdivXdrd-nmPQv8F7I7">
    <mxGraphModel dx="1657" dy="1772" grid="1" gridSize="10" guides="1" tooltips="1" connect="1" arrows="1" fold="1" page="1" pageScale="1" pageWidth="827" pageHeight="1169" math="0" shadow="0">
      <root>
        <mxCell id="0" />
        <mxCell id="1" parent="0" />
        <mxCell id="ToYl0kDXxNr8-iO22Kr0-1" value="Public subnet" style="points=[[0,0],[0.25,0],[0.5,0],[0.75,0],[1,0],[1,0.25],[1,0.5],[1,0.75],[1,1],[0.75,1],[0.5,1],[0.25,1],[0,1],[0,0.75],[0,0.5],[0,0.25]];outlineConnect=0;gradientColor=none;html=1;whiteSpace=wrap;fontSize=12;fontStyle=0;container=1;pointerEvents=0;collapsible=0;recursiveResize=0;shape=mxgraph.aws4.group;grIcon=mxgraph.aws4.group_security_group;grStroke=0;strokeColor=#248814;fillColor=#E9F3E6;verticalAlign=top;align=left;spacingLeft=30;fontColor=#248814;dashed=0;" parent="1" vertex="1">
          <mxGeometry x="581" y="180" width="279" height="201" as="geometry" />
        </mxCell>
        <mxCell id="9erhYqEvxiDwuoLbgE8k-1" value="AWS Cloud" style="points=[[0,0],[0.25,0],[0.5,0],[0.75,0],[1,0],[1,0.25],[1,0.5],[1,0.75],[1,1],[0.75,1],[0.5,1],[0.25,1],[0,1],[0,0.75],[0,0.5],[0,0.25]];outlineConnect=0;gradientColor=none;html=1;whiteSpace=wrap;fontSize=12;fontStyle=0;container=1;pointerEvents=0;collapsible=0;recursiveResize=0;shape=mxgraph.aws4.group;grIcon=mxgraph.aws4.group_aws_cloud;strokeColor=#232F3E;fillColor=none;verticalAlign=top;align=left;spacingLeft=30;fontColor=#232F3E;dashed=0;" parent="1" vertex="1">
          <mxGeometry x="40" y="-22" width="1130" height="652" as="geometry" />
        </mxCell>
        <mxCell id="9erhYqEvxiDwuoLbgE8k-2" value="VPC" style="points=[[0,0],[0.25,0],[0.5,0],[0.75,0],[1,0],[1,0.25],[1,0.5],[1,0.75],[1,1],[0.75,1],[0.5,1],[0.25,1],[0,1],[0,0.75],[0,0.5],[0,0.25]];outlineConnect=0;gradientColor=none;html=1;whiteSpace=wrap;fontSize=12;fontStyle=0;container=1;pointerEvents=0;collapsible=0;recursiveResize=0;shape=mxgraph.aws4.group;grIcon=mxgraph.aws4.group_vpc;strokeColor=#248814;fillColor=none;verticalAlign=top;align=left;spacingLeft=30;fontColor=#AAB7B8;dashed=0;" parent="9erhYqEvxiDwuoLbgE8k-1" vertex="1">
          <mxGeometry x="45" y="192" width="805" height="308" as="geometry" />
        </mxCell>
        <mxCell id="9erhYqEvxiDwuoLbgE8k-6" value="Private subnet" style="points=[[0,0],[0.25,0],[0.5,0],[0.75,0],[1,0],[1,0.25],[1,0.5],[1,0.75],[1,1],[0.75,1],[0.5,1],[0.25,1],[0,1],[0,0.75],[0,0.5],[0,0.25]];outlineConnect=0;gradientColor=none;html=1;whiteSpace=wrap;fontSize=12;fontStyle=0;container=1;pointerEvents=0;collapsible=0;recursiveResize=0;shape=mxgraph.aws4.group;grIcon=mxgraph.aws4.group_security_group;grStroke=0;strokeColor=#147EBA;fillColor=#E6F2F8;verticalAlign=top;align=left;spacingLeft=30;fontColor=#147EBA;dashed=0;" parent="9erhYqEvxiDwuoLbgE8k-2" vertex="1">
          <mxGeometry x="48" y="37" width="392" height="203" as="geometry" />
        </mxCell>
        <mxCell id="EwU__gBFup77rH8M6ATc-47" value="EC2" style="text;html=1;strokeColor=none;fillColor=none;align=center;verticalAlign=middle;whiteSpace=wrap;rounded=0;" parent="9erhYqEvxiDwuoLbgE8k-6" vertex="1">
          <mxGeometry x="247" y="151" width="79" height="30" as="geometry" />
        </mxCell>
        <mxCell id="LAu5N60jMj3nQdoWPaE--2" value="" style="sketch=0;points=[[0,0,0],[0.25,0,0],[0.5,0,0],[0.75,0,0],[1,0,0],[0,1,0],[0.25,1,0],[0.5,1,0],[0.75,1,0],[1,1,0],[0,0.25,0],[0,0.5,0],[0,0.75,0],[1,0.25,0],[1,0.5,0],[1,0.75,0]];outlineConnect=0;fontColor=#232F3E;gradientColor=#4D72F3;gradientDirection=north;fillColor=#3334B9;strokeColor=#ffffff;dashed=0;verticalLabelPosition=bottom;verticalAlign=top;align=center;html=1;fontSize=12;fontStyle=0;aspect=fixed;shape=mxgraph.aws4.resourceIcon;resIcon=mxgraph.aws4.rds;" parent="9erhYqEvxiDwuoLbgE8k-6" vertex="1">
          <mxGeometry x="58" y="72" width="78" height="78" as="geometry" />
        </mxCell>
        <mxCell id="LAu5N60jMj3nQdoWPaE--13" style="edgeStyle=orthogonalEdgeStyle;rounded=0;orthogonalLoop=1;jettySize=auto;html=1;entryX=0;entryY=0.5;entryDx=0;entryDy=0;entryPerimeter=0;" parent="9erhYqEvxiDwuoLbgE8k-6" edge="1">
          <mxGeometry relative="1" as="geometry">
            <mxPoint x="110" y="112" as="targetPoint" />
          </mxGeometry>
        </mxCell>
        <mxCell id="LAu5N60jMj3nQdoWPaE--11" style="edgeStyle=orthogonalEdgeStyle;rounded=0;orthogonalLoop=1;jettySize=auto;html=1;" parent="9erhYqEvxiDwuoLbgE8k-6" source="LAu5N60jMj3nQdoWPaE--5" target="LAu5N60jMj3nQdoWPaE--2" edge="1">
          <mxGeometry relative="1" as="geometry" />
        </mxCell>
        <mxCell id="LAu5N60jMj3nQdoWPaE--5" value="" style="sketch=0;points=[[0,0,0],[0.25,0,0],[0.5,0,0],[0.75,0,0],[1,0,0],[0,1,0],[0.25,1,0],[0.5,1,0],[0.75,1,0],[1,1,0],[0,0.25,0],[0,0.5,0],[0,0.75,0],[1,0.25,0],[1,0.5,0],[1,0.75,0]];outlineConnect=0;fontColor=#232F3E;gradientColor=#F78E04;gradientDirection=north;fillColor=#D05C17;strokeColor=#ffffff;dashed=0;verticalLabelPosition=bottom;verticalAlign=top;align=center;html=1;fontSize=12;fontStyle=0;aspect=fixed;shape=mxgraph.aws4.resourceIcon;resIcon=mxgraph.aws4.ec2;" parent="9erhYqEvxiDwuoLbgE8k-6" vertex="1">
          <mxGeometry x="247" y="72" width="78" height="78" as="geometry" />
        </mxCell>
        <mxCell id="LAu5N60jMj3nQdoWPaE--6" value="RDS" style="text;html=1;strokeColor=none;fillColor=none;align=center;verticalAlign=middle;whiteSpace=wrap;rounded=0;" parent="9erhYqEvxiDwuoLbgE8k-6" vertex="1">
          <mxGeometry x="57" y="150" width="79" height="30" as="geometry" />
        </mxCell>
        <mxCell id="9erhYqEvxiDwuoLbgE8k-8" value="Public subnet" style="points=[[0,0],[0.25,0],[0.5,0],[0.75,0],[1,0],[1,0.25],[1,0.5],[1,0.75],[1,1],[0.75,1],[0.5,1],[0.25,1],[0,1],[0,0.75],[0,0.5],[0,0.25]];outlineConnect=0;gradientColor=none;html=1;whiteSpace=wrap;fontSize=12;fontStyle=0;container=1;pointerEvents=0;collapsible=0;recursiveResize=0;shape=mxgraph.aws4.group;grIcon=mxgraph.aws4.group_security_group;grStroke=0;strokeColor=#248814;fillColor=#E9F3E6;verticalAlign=top;align=left;spacingLeft=30;fontColor=#248814;dashed=0;" parent="9erhYqEvxiDwuoLbgE8k-2" vertex="1">
          <mxGeometry x="486" y="39" width="279" height="201" as="geometry" />
        </mxCell>
        <mxCell id="9erhYqEvxiDwuoLbgE8k-13" value="" style="sketch=0;outlineConnect=0;fontColor=#232F3E;gradientColor=none;fillColor=#4D27AA;strokeColor=none;dashed=0;verticalLabelPosition=bottom;verticalAlign=top;align=center;html=1;fontSize=12;fontStyle=0;aspect=fixed;pointerEvents=1;shape=mxgraph.aws4.nat_gateway;" parent="9erhYqEvxiDwuoLbgE8k-8" vertex="1">
          <mxGeometry x="45" y="70" width="78" height="78" as="geometry" />
        </mxCell>
        <mxCell id="9erhYqEvxiDwuoLbgE8k-24" value="NAT Gateway" style="text;html=1;strokeColor=none;fillColor=none;align=center;verticalAlign=middle;whiteSpace=wrap;rounded=0;" parent="9erhYqEvxiDwuoLbgE8k-8" vertex="1">
          <mxGeometry x="29" y="149" width="110" height="30" as="geometry" />
        </mxCell>
        <mxCell id="Y5QRghiSlpmpzTCZAToq-2" style="edgeStyle=orthogonalEdgeStyle;rounded=0;orthogonalLoop=1;jettySize=auto;html=1;" parent="9erhYqEvxiDwuoLbgE8k-8" source="Y5QRghiSlpmpzTCZAToq-1" target="9erhYqEvxiDwuoLbgE8k-13" edge="1">
          <mxGeometry relative="1" as="geometry" />
        </mxCell>
        <mxCell id="Y5QRghiSlpmpzTCZAToq-1" value="" style="sketch=0;outlineConnect=0;fontColor=#232F3E;gradientColor=none;fillColor=#4D27AA;strokeColor=none;dashed=0;verticalLabelPosition=bottom;verticalAlign=top;align=center;html=1;fontSize=12;fontStyle=0;aspect=fixed;pointerEvents=1;shape=mxgraph.aws4.application_load_balancer;" parent="9erhYqEvxiDwuoLbgE8k-8" vertex="1">
          <mxGeometry x="159" y="70" width="78" height="78" as="geometry" />
        </mxCell>
        <mxCell id="Y5QRghiSlpmpzTCZAToq-3" value="ALB" style="text;html=1;strokeColor=none;fillColor=none;align=center;verticalAlign=middle;whiteSpace=wrap;rounded=0;" parent="9erhYqEvxiDwuoLbgE8k-8" vertex="1">
          <mxGeometry x="143" y="149" width="110" height="30" as="geometry" />
        </mxCell>
        <mxCell id="EwU__gBFup77rH8M6ATc-22" style="edgeStyle=orthogonalEdgeStyle;rounded=0;orthogonalLoop=1;jettySize=auto;html=1;" parent="9erhYqEvxiDwuoLbgE8k-2" source="9erhYqEvxiDwuoLbgE8k-13" target="LAu5N60jMj3nQdoWPaE--5" edge="1">
          <mxGeometry relative="1" as="geometry">
            <mxPoint x="423" y="129.5" as="targetPoint" />
          </mxGeometry>
        </mxCell>
        <mxCell id="s-n31F7pUSmzYccIUBGP-1" value="Private subnet" style="points=[[0,0],[0.25,0],[0.5,0],[0.75,0],[1,0],[1,0.25],[1,0.5],[1,0.75],[1,1],[0.75,1],[0.5,1],[0.25,1],[0,1],[0,0.75],[0,0.5],[0,0.25]];outlineConnect=0;gradientColor=none;html=1;whiteSpace=wrap;fontSize=12;fontStyle=0;container=1;pointerEvents=0;collapsible=0;recursiveResize=0;shape=mxgraph.aws4.group;grIcon=mxgraph.aws4.group_security_group;grStroke=0;strokeColor=#147EBA;fillColor=#E6F2F8;verticalAlign=top;align=left;spacingLeft=30;fontColor=#147EBA;dashed=0;" parent="9erhYqEvxiDwuoLbgE8k-2" vertex="1">
          <mxGeometry x="48" y="254" width="195" height="40" as="geometry" />
        </mxCell>
        <mxCell id="s-n31F7pUSmzYccIUBGP-5" style="edgeStyle=orthogonalEdgeStyle;rounded=0;orthogonalLoop=1;jettySize=auto;html=1;entryX=0;entryY=0.5;entryDx=0;entryDy=0;entryPerimeter=0;" parent="s-n31F7pUSmzYccIUBGP-1" edge="1">
          <mxGeometry relative="1" as="geometry">
            <mxPoint x="188" y="112.00000000000045" as="sourcePoint" />
          </mxGeometry>
        </mxCell>
        <mxCell id="s-n31F7pUSmzYccIUBGP-7" style="edgeStyle=orthogonalEdgeStyle;rounded=0;orthogonalLoop=1;jettySize=auto;html=1;entryX=0;entryY=0.5;entryDx=0;entryDy=0;entryPerimeter=0;" parent="s-n31F7pUSmzYccIUBGP-1" edge="1">
          <mxGeometry relative="1" as="geometry">
            <mxPoint x="95" y="112.00000000000045" as="sourcePoint" />
          </mxGeometry>
        </mxCell>
        <mxCell id="s-n31F7pUSmzYccIUBGP-9" style="edgeStyle=orthogonalEdgeStyle;rounded=0;orthogonalLoop=1;jettySize=auto;html=1;" parent="s-n31F7pUSmzYccIUBGP-1" edge="1">
          <mxGeometry relative="1" as="geometry">
            <mxPoint x="276.0000000000002" y="112.00000000000045" as="targetPoint" />
          </mxGeometry>
        </mxCell>
        <mxCell id="2CMo726lE90ph8KH67Ru-1" value="" style="sketch=0;outlineConnect=0;fontColor=#232F3E;gradientColor=none;fillColor=#8C4FFF;strokeColor=none;dashed=0;verticalLabelPosition=bottom;verticalAlign=top;align=center;html=1;fontSize=12;fontStyle=0;aspect=fixed;pointerEvents=1;shape=mxgraph.aws4.endpoints;" parent="9erhYqEvxiDwuoLbgE8k-2" vertex="1">
          <mxGeometry x="363.5" y="190" width="78" height="78" as="geometry" />
        </mxCell>
        <mxCell id="2CMo726lE90ph8KH67Ru-2" value="Endpoint ×4" style="text;html=1;strokeColor=none;fillColor=none;align=center;verticalAlign=middle;whiteSpace=wrap;rounded=0;" parent="9erhYqEvxiDwuoLbgE8k-2" vertex="1">
          <mxGeometry x="367.5" y="264" width="70" height="30" as="geometry" />
        </mxCell>
        <mxCell id="2CMo726lE90ph8KH67Ru-5" style="edgeStyle=orthogonalEdgeStyle;rounded=0;orthogonalLoop=1;jettySize=auto;html=1;entryX=1;entryY=0.75;entryDx=0;entryDy=0;entryPerimeter=0;" parent="9erhYqEvxiDwuoLbgE8k-2" source="2CMo726lE90ph8KH67Ru-1" target="LAu5N60jMj3nQdoWPaE--5" edge="1">
          <mxGeometry relative="1" as="geometry" />
        </mxCell>
        <mxCell id="9erhYqEvxiDwuoLbgE8k-19" style="edgeStyle=orthogonalEdgeStyle;rounded=0;orthogonalLoop=1;jettySize=auto;html=1;" parent="9erhYqEvxiDwuoLbgE8k-1" source="9erhYqEvxiDwuoLbgE8k-12" target="Y5QRghiSlpmpzTCZAToq-1" edge="1">
          <mxGeometry relative="1" as="geometry">
            <mxPoint x="770" y="341" as="targetPoint" />
          </mxGeometry>
        </mxCell>
        <mxCell id="9erhYqEvxiDwuoLbgE8k-12" value="" style="sketch=0;points=[[0,0,0],[0.25,0,0],[0.5,0,0],[0.75,0,0],[1,0,0],[0,1,0],[0.25,1,0],[0.5,1,0],[0.75,1,0],[1,1,0],[0,0.25,0],[0,0.5,0],[0,0.75,0],[1,0.25,0],[1,0.5,0],[1,0.75,0]];outlineConnect=0;fontColor=#232F3E;gradientColor=#F54749;gradientDirection=north;fillColor=#C7131F;strokeColor=#ffffff;dashed=0;verticalLabelPosition=bottom;verticalAlign=top;align=center;html=1;fontSize=12;fontStyle=0;aspect=fixed;shape=mxgraph.aws4.resourceIcon;resIcon=mxgraph.aws4.waf;" parent="9erhYqEvxiDwuoLbgE8k-1" vertex="1">
          <mxGeometry x="880" y="342" width="78" height="78" as="geometry" />
        </mxCell>
        <mxCell id="LAu5N60jMj3nQdoWPaE--16" style="edgeStyle=orthogonalEdgeStyle;rounded=0;orthogonalLoop=1;jettySize=auto;html=1;entryX=0.25;entryY=0;entryDx=0;entryDy=0;entryPerimeter=0;" parent="9erhYqEvxiDwuoLbgE8k-1" source="9erhYqEvxiDwuoLbgE8k-15" target="LAu5N60jMj3nQdoWPaE--5" edge="1">
          <mxGeometry relative="1" as="geometry" />
        </mxCell>
        <mxCell id="9erhYqEvxiDwuoLbgE8k-15" value="" style="sketch=0;points=[[0,0,0],[0.25,0,0],[0.5,0,0],[0.75,0,0],[1,0,0],[0,1,0],[0.25,1,0],[0.5,1,0],[0.75,1,0],[1,1,0],[0,0.25,0],[0,0.5,0],[0,0.75,0],[1,0.25,0],[1,0.5,0],[1,0.75,0]];outlineConnect=0;fontColor=#232F3E;gradientColor=#F54749;gradientDirection=north;fillColor=#C7131F;strokeColor=#ffffff;dashed=0;verticalLabelPosition=bottom;verticalAlign=top;align=center;html=1;fontSize=12;fontStyle=0;aspect=fixed;shape=mxgraph.aws4.resourceIcon;resIcon=mxgraph.aws4.inspector;" parent="9erhYqEvxiDwuoLbgE8k-1" vertex="1">
          <mxGeometry x="96.5" y="62" width="78" height="78" as="geometry" />
        </mxCell>
        <mxCell id="9erhYqEvxiDwuoLbgE8k-25" value="WAF" style="text;html=1;strokeColor=none;fillColor=none;align=center;verticalAlign=middle;whiteSpace=wrap;rounded=0;" parent="9erhYqEvxiDwuoLbgE8k-1" vertex="1">
          <mxGeometry x="894" y="420" width="50" height="30" as="geometry" />
        </mxCell>
        <mxCell id="9erhYqEvxiDwuoLbgE8k-26" value="Amazon Inspector" style="text;html=1;strokeColor=none;fillColor=none;align=center;verticalAlign=middle;whiteSpace=wrap;rounded=0;" parent="9erhYqEvxiDwuoLbgE8k-1" vertex="1">
          <mxGeometry x="100" y="142" width="71" height="30" as="geometry" />
        </mxCell>
        <mxCell id="2CMo726lE90ph8KH67Ru-4" style="edgeStyle=orthogonalEdgeStyle;rounded=0;orthogonalLoop=1;jettySize=auto;html=1;entryX=0.5;entryY=1;entryDx=0;entryDy=0;" parent="9erhYqEvxiDwuoLbgE8k-1" source="2CMo726lE90ph8KH67Ru-3" target="2CMo726lE90ph8KH67Ru-2" edge="1">
          <mxGeometry relative="1" as="geometry" />
        </mxCell>
        <mxCell id="2CMo726lE90ph8KH67Ru-3" value="" style="sketch=0;points=[[0,0,0],[0.25,0,0],[0.5,0,0],[0.75,0,0],[1,0,0],[0,1,0],[0.25,1,0],[0.5,1,0],[0.75,1,0],[1,1,0],[0,0.25,0],[0,0.5,0],[0,0.75,0],[1,0.25,0],[1,0.5,0],[1,0.75,0]];points=[[0,0,0],[0.25,0,0],[0.5,0,0],[0.75,0,0],[1,0,0],[0,1,0],[0.25,1,0],[0.5,1,0],[0.75,1,0],[1,1,0],[0,0.25,0],[0,0.5,0],[0,0.75,0],[1,0.25,0],[1,0.5,0],[1,0.75,0]];outlineConnect=0;fontColor=#232F3E;fillColor=#E7157B;strokeColor=#ffffff;dashed=0;verticalLabelPosition=bottom;verticalAlign=top;align=center;html=1;fontSize=12;fontStyle=0;aspect=fixed;shape=mxgraph.aws4.resourceIcon;resIcon=mxgraph.aws4.systems_manager;" parent="9erhYqEvxiDwuoLbgE8k-1" vertex="1">
          <mxGeometry x="408.5" y="522" width="78" height="78" as="geometry" />
        </mxCell>
        <mxCell id="2CMo726lE90ph8KH67Ru-6" value="Systems Manager&lt;br&gt;(Fleet Manager)" style="text;html=1;strokeColor=none;fillColor=none;align=center;verticalAlign=middle;whiteSpace=wrap;rounded=0;" parent="9erhYqEvxiDwuoLbgE8k-1" vertex="1">
          <mxGeometry x="391.25" y="600" width="112.5" height="30" as="geometry" />
        </mxCell>
        <mxCell id="aOHBYZ9krZqyBGRkBVo6-1" value="" style="sketch=0;points=[[0,0,0],[0.25,0,0],[0.5,0,0],[0.75,0,0],[1,0,0],[0,1,0],[0.25,1,0],[0.5,1,0],[0.75,1,0],[1,1,0],[0,0.25,0],[0,0.5,0],[0,0.75,0],[1,0.25,0],[1,0.5,0],[1,0.75,0]];outlineConnect=0;fontColor=#232F3E;fillColor=#DD344C;strokeColor=#ffffff;dashed=0;verticalLabelPosition=bottom;verticalAlign=top;align=center;html=1;fontSize=12;fontStyle=0;aspect=fixed;shape=mxgraph.aws4.resourceIcon;resIcon=mxgraph.aws4.cognito;" parent="9erhYqEvxiDwuoLbgE8k-1" vertex="1">
          <mxGeometry x="1020" y="342" width="78" height="78" as="geometry" />
        </mxCell>
        <mxCell id="aOHBYZ9krZqyBGRkBVo6-2" value="" style="edgeStyle=orthogonalEdgeStyle;rounded=0;orthogonalLoop=1;jettySize=auto;html=1;" parent="9erhYqEvxiDwuoLbgE8k-1" source="9erhYqEvxiDwuoLbgE8k-12" target="aOHBYZ9krZqyBGRkBVo6-1" edge="1">
          <mxGeometry relative="1" as="geometry">
            <mxPoint x="958" y="381" as="sourcePoint" />
            <mxPoint x="1180" y="381" as="targetPoint" />
          </mxGeometry>
        </mxCell>
        <mxCell id="aOHBYZ9krZqyBGRkBVo6-3" value="Cognito" style="text;html=1;strokeColor=none;fillColor=none;align=center;verticalAlign=middle;whiteSpace=wrap;rounded=0;" parent="9erhYqEvxiDwuoLbgE8k-1" vertex="1">
          <mxGeometry x="1034" y="420" width="50" height="30" as="geometry" />
        </mxCell>
        <mxCell id="9erhYqEvxiDwuoLbgE8k-9" value="" style="sketch=0;outlineConnect=0;fontColor=#232F3E;gradientColor=none;fillColor=#232F3D;strokeColor=none;dashed=0;verticalLabelPosition=bottom;verticalAlign=top;align=center;html=1;fontSize=12;fontStyle=0;aspect=fixed;pointerEvents=1;shape=mxgraph.aws4.users;" parent="1" vertex="1">
          <mxGeometry x="1310" y="320" width="78" height="78" as="geometry" />
        </mxCell>
        <mxCell id="aOHBYZ9krZqyBGRkBVo6-4" style="edgeStyle=orthogonalEdgeStyle;rounded=0;orthogonalLoop=1;jettySize=auto;html=1;" parent="1" source="9erhYqEvxiDwuoLbgE8k-16" target="aOHBYZ9krZqyBGRkBVo6-1" edge="1">
          <mxGeometry relative="1" as="geometry" />
        </mxCell>
        <mxCell id="9erhYqEvxiDwuoLbgE8k-16" value="" style="image;aspect=fixed;perimeter=ellipsePerimeter;html=1;align=center;shadow=0;dashed=0;spacingTop=3;image=img/lib/active_directory/internet_globe.svg;" parent="1" vertex="1">
          <mxGeometry x="1220" y="334" width="50" height="50" as="geometry" />
        </mxCell>
        <mxCell id="9erhYqEvxiDwuoLbgE8k-28" value="認証されたユーザー" style="text;html=1;strokeColor=none;fillColor=none;align=center;verticalAlign=middle;whiteSpace=wrap;rounded=0;" parent="1" vertex="1">
          <mxGeometry x="1294" y="398" width="110" height="30" as="geometry" />
        </mxCell>
        <mxCell id="EwU__gBFup77rH8M6ATc-2" value="" style="edgeStyle=orthogonalEdgeStyle;rounded=0;orthogonalLoop=1;jettySize=auto;html=1;entryX=1;entryY=0.5;entryDx=0;entryDy=0;" parent="1" source="9erhYqEvxiDwuoLbgE8k-9" target="9erhYqEvxiDwuoLbgE8k-16" edge="1">
          <mxGeometry relative="1" as="geometry">
            <mxPoint x="1580" y="359" as="sourcePoint" />
            <mxPoint x="1335" y="384" as="targetPoint" />
          </mxGeometry>
        </mxCell>
        <mxCell id="9erhYqEvxiDwuoLbgE8k-27" value="Internet" style="text;html=1;strokeColor=none;fillColor=none;align=center;verticalAlign=middle;whiteSpace=wrap;rounded=0;" parent="1" vertex="1">
          <mxGeometry x="1220" y="390" width="50" height="30" as="geometry" />
        </mxCell>
        <mxCell id="BpQwVgq8ceSTI6zG5UUR-2" style="edgeStyle=orthogonalEdgeStyle;rounded=0;orthogonalLoop=1;jettySize=auto;html=1;" parent="1" source="BpQwVgq8ceSTI6zG5UUR-1" target="9erhYqEvxiDwuoLbgE8k-1" edge="1">
          <mxGeometry relative="1" as="geometry" />
        </mxCell>
        <mxCell id="BpQwVgq8ceSTI6zG5UUR-1" value="" style="shape=image;verticalLabelPosition=bottom;labelBackgroundColor=default;verticalAlign=top;aspect=fixed;imageAspect=0;image=data:image/png,iVBORw0KGgoAAAANSUhEUgAAB6AAAAgQCAYAAACL0S+8AAAACXBIWXMAAFiVAABYlQHZbTfTAAAgAElEQVR4nOzd3W2bx7YG4OWDcy93IHUgdSABU4DcgdiBWMAA4gZ4H6UCKRVYKWAgpQJxVyC5A6cCHszO5OzsbP/JHlLfz/MAvI/XMkAjL2e9b7bbbQAAAAAAAADAj/ofEwQAAAAAAACgBwE0AAAAAAAAAF0IoAEAAAAAAADoQgANAAAAAAAAQBcCaAAAAAAAAAC6EEADAAAAAAAA0IUAGgAAAAAAAIAuBNAAAAAAAAAAdCGABgAAAAAAAKALATQAAAAAAAAAXQigAQAAAAAAAOhCAA0AAAAAAABAFwJoAAAAAAAAALoQQAMAAAAAAADQhQAaAAAAAAAAgC4E0AAAAAAAAAB0IYAGAAAAAAAAoAsBNAAAAAAAAABdCKABAAAAAAAA6EIADQAAAAAAAEAXAmgAAAAAAAAAuhBAAwAAAAAAANCFABoAAAAAAACALgTQAAAAAAAAAHQhgAYAAAAAAACgCwE0AAAAAAAAAF0IoAEAAAAAAADoQgANAAAAAAAAQBcCaAAAAAAAAAC6EEADAAAAAAAA0IUAGgAAAAAAAIAuBNAAAAAAAAAAdCGABgAAAAAAAKALATQAAAAAAAAAXQigAQAAAAAAAOhCAA0AAAAAAABAFwJoAAAAAAAAALoQQAMAAAAAAADQhQAaAAAAAAAAgC4E0AAAAAAAAAB0IYAGAAAAAAAAoAsBNAAAAAAAAABdCKABAAAAAAAA6EIADQAAAAAAAEAXAmgAAAAAAAAAuhBAAwAAAAAAANCFABoAAAAAAACALgTQAAAAAAAAAHQhgAYAAAAAAACgCwE0AAAAAAAAAF0IoAEAAAAAAADoQgANAAAAAAAAQBcCaAAAAAAAAAC6EEADAAAAAAAA0IUAGgAAAAAAAIAuBNAAAAAAAAAAdCGABgAAAAAAAKALATQAAAAAAAAAXQigAQAAAAAAAOhCAA0AAAAAAABAFwJoAAAAAAAAALoQQAMAAAAAAADQhQAaAAAAAAAAgC4E0AAAAAAAAAB0IYAGAAAAAAAAoAsBNAAAAAAAAABdCKABAAAAAAAA6EIADQAAAAAAAEAXAmgAAAAAAAAAuhBAAwAAAAAAANCFABoAAAAAAACALgTQAAAAAAAAAHQhgAYAAAAAAACgCwE0AAAAAAAAAF0IoAEAAAAAAADoQgANAAAAAAAAQBcCaAAAAAAAAAC6EEADAAAAAAAA0IUAGgAAAAAAAIAuBNAAAAAAAAAAdCGABgAAAAAAAKALATQAAAAAAAAAXQigAQAAAAAAAOhCAA0AAAAAAABAFwJoAAAAAAAAALoQQAMAAAAAAADQhQAaAAAAAAAAgC4E0AAAAAAAAAB0IYAGAAAAAAAAoAsBNAAAAAAAAABdCKABAAAAAAAA6EIADQAAAAAAAEAXAmgAAAAAAAAAuhBAAwAAAAAAANCFABoAAAAAAACALgTQAAAAAAAAAHQhgAYAAAAAAACgCwE0AAAAAAAAAF0IoAEAAAAAAADoQgANAAAAAAAAQBcCaAAAAAAAAAC6EEADAAAAAAAA0IUAGgAAAAAAAIAuBNAAAAAAAAAAdCGABgAAAAAAAKALATQAAAAAAAAAXQigAQAAAAAAAOhCAA0AAAAAAABAFwJoAAAAAAAAALoQQAMAAAAAAADQhQAaAAAAAAAAgC4E0AAAAAAAAAB0IYAGAAAAAAAAoAsBNAAAAAAAAABdCKABAAAAAAAA6EIADQAAAAAAAEAXAmgAAAAAAAAAuhBAAwAAAAAAANCFABoAAAAAAACALgTQAAAAAAAAAHQhgAYAAAAAAACgCwE0AAAAAAAAAF0IoAEAAAAAAADoQgANAAAAAAAAQBcCaAAAAAAAAAC6EEADAAAAAAAA0IUAGgAAAAAAAIAuBNAAAAAAAAAAdCGABgAAAAAAAKALATQAAAAAAAAAXQigAQAAAAAAAOhCAA0AAAAAAABAFwJoAAAAAAAAALoQQAMAAAAAAADQhQAaAAAAAAAAgC4E0AAAAAAAAAB0IYAGAAAAAAAAoAsBNAAAAAAAAABdCKABAAAAAAAA6EIADQAAAAAAAEAXAmgAAAAAAAAAuhBAAwAAAAAAANCFABoAAAAAAACALgTQAAAAAAAAAHQhgAYAAAAAAACgCwE0AAAAAAAAAF0IoAEAAAAAAADoQgANAAAAAAAAQBcCaAAAAAAAAAC6EEADAAAAAAAA0IUAGgAAAAAAAIAuBNAAAAAAAAAAdCGABgAAAAAAAKALATQAAAAAAAAAXQigAQAAAAAAAOhCAA0AAAAAAABAFwJoAAAAAAAAALoQQAMAAAAAAADQhQAaAAAAAAAAgC4E0AAAAAAAAAB0IYAGAAAAAAAAoAsBNAAAAAAAAABdCKABAAAAAAAA6EIADQAAAAAAAEAXAmgAAAAAAAAAuhBAAwAAAAAAANCFABoAAAAAAACALgTQAAAAAAAAAHQhgAYAAAAAAACgCwE0AAAAAAAAAF0IoAEAAAAAAADoQgANAAAAAAAAQBcCaAAAAAAAAAC6EEADAAAAAAAA0IUAGgD2IKfynFM5M2sAAAAAAKZMAA0A+3EYEfc5lbucypGZAwAAAAAwRQJoANiv84h4yqmscipvzR4AAAAAgCkRQAPA67iKiHqWe2H+AAAAAABMhQAaAF7PQUTc5FQ2+qEBAAAAAJgCATQAvL7j1g99qx8aAAAAAIAxe7Pdbi0QAHYsp/KtX7i/R8R1/axL+mgvAAAAAACMiRfQADAsB60feqMfGgAAAACAsfECGgD24AUvoP/ut4hYrkva2BMAAAAAAEPnBTQADNtpRDy2fui3dgUAAAAAwJAJoAFgHC4i4jmnsrIvAAAAAACGygluANiDHzjB/SkfImKxLunB7gAAAAAAGBIvoAFgfA4j4j6n8pBTObI/AAAAAACGQgANAONV+6GfcirX+qEBAAAAABgCATQAjN9l64de2iUAAAAAAK9JBzQA7EHnDugv+WdELPVDAwAAAADwGryABoBpOW790Hf6oQEAAAAA2DcBNABM03nrh17phwYAAAAAYF8E0AAwbVetH3phzwAAAAAA7JoAGgCm7yAibnIqDzmVM/sGAAAAAGBXBNAAMB+nrR/6Vj80AAAAAAC78Ga73RosAOxYTmVoX7i/R8R1/axL+jiA/x4AAAAAACbAC2gAmKeD1g+9yam883cAAAAAAIAeBNAAMG+HEfG+9UOfzH0YAAAAAAD8GAE0ABCtH/qx9UO/NREAAAAAAL6HABoA+KuLiHjOqSxNBQAAAACAl3qz3W4NDQB2LKcyxi/cDxGxWJf0MID/FgAAAAAARsALaADgc2o/9H3rhz4yJQAAAAAAvkYADQB8Te2HfsqpXOuHBgAAAADgSwTQAMC3umz90AsTAwAAAADgUwTQAMBLHETETU5lk1M5MzkAAAAAAP5KAA0AfI/j1g99px8aAAAAAIA/CaABgB9x3vqhV/qhAQAAAAAQQAMAPVxFxEY/NAAAAADAvAmgAYBeDls/9IN+aAAAAACAeRJAAwC9nbZ+6Fv90AAAAAAA8yKABgB25aKd5V6ZMAAAAADAPLzZbrdWDQA7llOZ+xfuh4hYrku6G8B/CwAAAAAAO+IFNACwD7Uf+n3rhz4xcQAAAACAaRJAAwD7VPuhH3Mq1zmVtyYPAAAAADAtAmgA4DVcRsRzTmVp+gAAAAAA06EDGgD2QAf0F9V+6MW6pIcB/zcCAAAAAPANvIAGAF5b7Ye+b/3QR7YBAAAAADBeAmgAYChqP/RTTmWlHxoAAAAAYJwE0ADA0Fy1fuiFzQAAAAAAjIsAGgAYooOIuMmpbHIqZzYEAAAAADAOAmgAYMiOWz/0nX5oAAAAAIDhe7Pdbq0JAHYsp+IL98f9HhHX9bMu6ePY/zAAAAAAAFPkBTQAMBYHrR96ox8aAAAAAGCYvIAGgD3wAnonfouI5bqkzQT/bAAAAAAAo+QFNAAwVqcR8ZhTuc2pvLVFAAAAAIDXJ4AGAMbuIiKecyormwQAAAAAeF1OcAPAHjjBvTcf2lnuu5n8eQEAAAAABkUADQB7IIDeu9oPvViX9DyzPzcAAAAAwKtyghsAmKLaD/2UU7nWDw0AAAAAsD8CaABgyi5bP/TSlgEAAAAAds8JbgDYAye4B+FDO8v9MPdBAAAAAADsihfQAMBcHEbEfU7lLqdyZOsAAAAAAP0JoAGAuTlv/dAr/dAAAAAAAH0JoAGAubpq/dALfwMAAAAAAPoQQAMAc3YQETc5lU1O5czfBAAAAACAHyOABgCIOG790Lf6oQEAAAAAvt+b7XZrfACwYzkVX7jj8XtEXNfPuqSPcx8GAAAAAMBLeAENAPCfDlo/dD3L/c5sAAAAAAC+nQAaAODTDiPifU7lIadyYkYAAAAAAF8ngAYA+LLTiHhs/dBvzQoAAAAA4PME0AAA3+YiIp5zKivzAgAAAAD4tDfb7dZoAGDHciq+cKflQ0Qs1iU9zH0QAAAAAAB/5QU0AMDL1X7o+9YPfWR+AAAAAAB/EEADAHy/2g/9lFO51g8NAAAAACCABgDo4bL1Qy9NEwAAAACYMx3QALAHOqBn5Z8RsdQPDQAAAADMkRfQAAB9Hbd+6Dv90AAAAADA3AigAQB247z1Q6/0QwMAAAAAcyGABgDYrauI2ORUFuYMAAAAAEydABoAYPcOI+Imp/KQUzkzbwAAAABgqgTQAAD7c9r6oW/1QwMAAAAAUySABgDYv4t2lntl9gAAAADAlLzZbrcWCgA7llPxhcvnfIiI5bqkOxMCAAAAAMbOC2gAgNdV+6Hft37oE7sAAAAAAMZMAA0AMAy1H/qx9UO/tRMAAAAAYIwE0AAAw1L7oZ9zKkt7AQAAAADGRgc0AOyBDmi+U+2HXqxLejBAAAAAAGAMvIAGABiu2g993/qhj+wJAAAAABg6ATQAwPDVfuinnMq1fmgAAAAAYMgE0AAA43HZ+qEXdgYAAAAADJEAGgBgXA4i4ianssmpnNkdAAAAADAkAmgAgHE6bv3Qd/qhAQAAAICheLPdbi0DAHYsp+ILl136PSKu62dd0keTBgAAAABeixfQAADjV89yX0XERj80AAAAAPCaBNAAANNx2PqhH/RDAwAAAACvwQluANgDJ7h5Jb9ExNJZbgAAAABgX7yABgCYrouIeM6prOwYAAAAANgHL6ABYA+8gGYAPrTX0HeWAQAAAADsihfQAADzUPuh37d+6BM7BwAAAAB2QQANADAvpxHxmFO5zqm8tXsAAAAAoCcBNADAPF22fuil/QMAAAAAveiABoA90AHNwNV+6MW6pAeLAgAAAAB+hBfQAADUfuj7nMpdTuVo9tMAAAAAAL6bABoAgD+dR8RTTmWlHxoAAAAA+B4CaAAA/u6q9UMvTAYAAAAAeAkBNAAAn3IQETc5lU1O5cyEAAAAAIBvIYAGAOBLjls/9K1+aAAAAADga95st1tDAoAdy6n4wmUKfo+I6/pZl/TRRgEAAACAv/MCGgCAb3XQ+qE3+qEBAAAAgE/xAhoA9sALaCbqt4hYrkvaWDAAAAAAEF5AAwDwA04j4rH1Q781SAAAAABAAA0AwI+6iIjnnMrKJAEAAABg3pzgBoA9cIKbGfnQznLfWToAAAAAzI8AGgD2QADNDNV+6MW6pGfLBwAAAID5cIIbAIBdqP3QTzmVa/3QAAAAADAfAmgAAHbpsvVDL00ZAAAAAKbPCW4A2AMnuOFf/tn6oR+MAwAAAACmyQtoAAD25Tgi7nMqdzmVI1MHAAAAgOkRQAMAsG/nrR96pR8aAAAAAKZFAA0AwGu5av3QCxsAAAAAgGkQQAMA8JoOIuImp/KQUzmzCQAAAAAYNwE0AABDcNr6oW/1QwMAAADAeL3ZbrfWBwA7llPxhQvf7veIuK6fdUkfzQ0AAAAAxsMLaAAAhuag9UNvcirvbAcAAAAAxkMADQDAUB1GxPvWD31iSwAAAAAwfAJoAACGrvZDP7Z+6Le2BQAAAADDJYAGAGAsLiLiOaeysjEAAAAAGKY32+3WagBgx3IqvnChrw8RsViX9GCuAAAAADAcXkADADBGtR/6vvVDH9kgAAAAAAyDABoAgDGr/dBPOZVr/dAAAAAA8PoE0AAATMFl64de2CYAAAAAvB4BNAAAU3EQETc5lU1O5cxWAQAAAGD/BNAAAEzNceuHvtMPDQAAAAD7JYAGAGCqzls/9Eo/NAAAAADshwAaAICpu4qIjX5oAAAAANg9ATQAAHNw2PqhH/RDAwAAAMDuCKABAJiT09YPfasfGgAAAAD6E0ADADBHF+0s98r2AQAAAKCfN9vt1jgBYMdyKr5wYbg+RMRyXdKdHQEAAADAj/ECGgCAuav90O9bP/TJ3IcBAAAAAD9CAA0AAH+o/dCPOZXrnMpbMwEAAACAlxNAAwDAf7qMiOecytJcAAAAAOBldEADwB7ogIbRqv3Qi3VJD1YIAAAAAF/nBTQAAHxe7Ye+b/3QR+YEAAAAAF8mgAYAgK+r/dBPOZWVfmgAAAAA+DwBNAAAfLur1g+9MDMAAAAA+G8CaAAAeJmDiLjJqWxyKmdmBwAAAAD/JoAGAIDvc9z6oe/0QwMAAADAH95st1ujAIAdy6n4woVp+z0irutnXdJHuwYAAABgrryABgCAH3fQ+qE3+qEBAAAAmDMBNAAA9HPY+qEf9EMDAAAAMEdOcAPAHjjBDbP1S0QsneUGAAAAYC68gAYAgN25iIjnnMrKjAEAAACYAy+gAWAPvIAGIuJDew19ZxgAAAAATJUAGgD2QAAN/MVvEbFYl/RsKAAAAABMjRPcAACwX6cR8ZRTuc6pvDV7AAAAAKZEAA0AAK/jsvVDL80fAAAAgKlwghsA9sAJbuArPrSz3A8GBQAAAMCYeQENAACv7zAi7nMqdzmVI/sAAAAAYKwE0AAAMBznrR96pR8aAAAAgDESQAMAwPBctX7ohd0AAAAAMCYCaAAAGKaDiLjJqWxyKmd2BAAAAMAYCKABAGDYjls/9K1+aAAAAACG7s12u7UkANixnIovXKCH3yPiun7WJX00UQAAAACGxgtoAAAYj4PWD13Pcr+zNwAAAACGRgANAADjcxgR73MqDzmVE/sDAAAAYCgE0AAAMF6nEfHY+qHf2iMAAAAAr00ADQAA43cREc85lZVdAgAAAPCa3my3WwsAgB3LqfjCBfblQ0Qs1iU9mDgAAAAA++YFNAAATEvth75v/dBHdgsAAADAPgmgAQBgmmo/9FNO5Vo/NAAAAAD7IoAGAIBpu2z90Et7BgAAAGDXdEADwB7ogAYG4p8RsdQPDQAAAMCueAENAADzcdz6oe/0QwMAAACwCwJoAACYn/PWD73SDw0AAABATwJoAACYr6vWD73wdwAAAACAHgTQAAAwbwcRcZNTecipnM19GAAAAAD8GAE0AABQnbZ+6Fv90AAAAAB8LwE0AADwVxcRsan90KYCAAAAwEu92W63hgYAO5ZT8YULjNGHiFiuS7qzPQAAAAC+hRfQAADA5xxGxPvWD31iSgAAAAB8jQAaAAD4mtoP/dj6od+aFgAAAACfI4AGAAC+Ve2Hfs6pLE0MAAAAgE8RQAMAAC9xEBE/5VT0QgMAAADwXwTQAADA93CKGwAAAID/IoAGAAAAAAAAoAsBNAAAAAAAAABdCKABAAAAAAAA6EIADQAAAAAAAEAXAmgAAAAAAAAAuhBAAwAAAAAAANCFABoAAAAAAACALgTQAAAAAAAAAHQhgAYAAAAAAACgCwE0AAAAAAAAAF0IoAEAAAAAAADoQgANAAAAAAAAQBcCaAAAAAAAAAC6EEADAAAAAAAA0IUAGgAAAAAAAIAuBNAAAAAAAAAAdCGABgAAAAAAAKALATQAAAAAAAAAXQigAQAAAAAAAOhCAA0AAIxWTmWRU1nZIAAAX5JTOcqp3BkSAOze/5oxAAAwYkcRcVWD6IhYrkvyPxUBAPh/OZW39d+J7XNgMgCwe15AAwAAU3AYEe9zKg/1dYuNAgDQfqS4qT9YFD4DwP54AQ0AAEzJaUQ85VR+jojVuqSPtgsAMC85lbP6b8H2b0MAYM+8gAYAAKboMiKecypL2wUAmId6bjunchsR98JnAHg9AmgAAGCq6pnFn3Iqz+0VDAAAE5VTqS+enyPiwo4B4HU5wQ0AAExd7Ye+z6n8GhHLdUnPNg4AMA05lXcRcd3+zQcADIAAGgAAmIvz+smp/KP+T0r90AAA45VTOYqIW6e2AWB4nOAGAADm5qr1Qy9sHgBgXFrPc33x/CR8BoBhEkADAABzVPuhb3IqD/qhAQDGIaeybD3Pl1YGAMPlBDcAADBnp60f+peIWOmHBgAYnvaDwVs9zwAwDgJoAACAiIuIeNfOOeqHBgAYgNbzXP99dm4fADAeTnADAAD84aD1Q29yKu/MBADgdbSe51XreRY+A8DICKABAAD+Uz3t+L71Q5+YDQDA/uRUFq3n+crYAWCcnOAGAAD4tNoP/dj6oZfOcgMA7E7rea7nto+NGQDGzQtoAACAL6v90M/tDCQAAB3Vnuecym1E3AufAWAavIAGAAD4un/1Q7eTkIt1SQ9mBgDw/WrPc70y0z4HRgkA0+EFNAAAwLer/dD3rR/6yNwAAF4up/IuIjat51n4DAAT4wU0AADAy9V+6Kecys8RsdIPDQDwdTmVk9bzfGpcADBdXkADAAB8v8vWD700QwCAT6vntlvP86PwGQCmTwANAADwY+rZyJ9yKpucyplZAgD8W05lVX+wFxEXxgIA8+AENwAAQB/HrR/614hYrkt6NlcAYK7aD/Pqq+dDfwkAYF4E0AAAAH2d109O5R+141A/NAAwJzmVoxY8O7UNADPlBDcAAMBuXEVEPcu9MF8AYOpaz/N1RDwJnwFg3gTQAAAAu1NPTt7kVB70QwMAU5VTWbae50tLBgCc4AYAANi909YP/UtErPRDAwBT0H5gV189H1soAPAnL6ABAAD256Kd5V6ZOQAwVrXnOadyV39gJ3wGAP7OC2gAAID9Oqj90K0berku6c78AYAxqD3P9d8v9d8yFgYAfI4X0AAAAK+j9kO/b/3QJ3YAAAxZ+/HcRvgMAHyNF9AAAACvq/ZDP7Z+6Poi+qN9AABD0XqeV+3fLAAAX+UFNAAAwDDUfujnnMrSPgCA19Z6nm9bz7PwGQD4ZgJoAACA4aj90D/lVJ7bayMAgL3Lqazaue0L0wcAXsoJbgAAgOGp/dD3OZXfImKxLunZjgCAXcupvIuI6/ZvEQCA7yKABgAAGK567vIpp/Jz7V7UDw0A7EJO5aQFz05tAwA/zAluAACA4bts/dALuwIAesmpvG09z4/CZwCgFwE0AADAONR+6JucykY/NADwo3Iqy/oDNz3PAEBvTnADAACMy3Hrh/41Ipb6oQGAl2g/ZLvV8wwA7IoAGgAAYJzOI+Isp1L7Gq/1QwMAX5JTOWrBs1PbAMBOOcENAAAwXvUs91VEbPRDAwCf0nqe6w/WnoTPAMA+CKABAADG77D1Qz/ohwYA/tR+oFbrOi4NBQDYFye4AQAApuO09UP/0vqhneUGgBlqP0irr56P7R8A2DcvoAEAAKbnor52yqms7BYA5qP2POdU7uoP0oTPAMBr8QIaAABgmv7VD91Ob9bX0Hf2DADTVHue6/d9+xxYMwDwmryABgAAmLbaD/2+9UOf2DUATEv7sdmm/vBM+AwADIEX0AAAAPNQ+6Efcyo/R8RKPzQAjFvreV6173gAgMHwAhoAAGBeLls/9NLeAWB86rntnMpt63kWPgMAgyOABgAAmJ96nvOnnMpzez0FAIxATqW+eH6OiAv7AgCGygluAACA+ar90Pc5lV8jYrku6dnfBQAYnpzKu4i4bt/dAACDJoAGAADgvH5yKv+o/3NbPzQADENO5aQFz05tAwCj4QQ3AAAAf7pq/dALEwGA19N6nmvw/Ch8BgDGRgANAADAX9V+6JucykY/NADsX05l2XqeL40fABgjJ7gBAAD4lOPWD/1LRKz0QwPAbrUfft3qeQYAxk4ADQAAwJdcRMS7dgZUPzQAdJZTOWo9z+dmCwBMgRPcAAAAfM1B64fe6IcGgD5az/MqIp6EzwDAlAigAQAA+FaHrR/6IadyYmoA8H3aD7qe2w+8AAAmxQluAAAAXuo0Ih5bP/TSWW4A+Dat57me2z42MgBgqryABgAA4HvVfujndj4UAPiM2vOcU7mNiHvhMwAwdV5AAwAA8CP+1Q/dTonW19B3pgkAf6g9z/X7sX0OjAUAmAMvoAEAAOih9kO/b/3QRyYKwNy1H2dtWs+z8BkAmA0voAEAAOip9kM/5VR+joiVfmgA5ianctJ6nk8tHwCYIy+gAQAA2IXL1g+9NF0A5qCe2249z4/CZwBgzgTQAAAA7Eo9N/pTTmWTUzkzZQCmKqeyqj+8iogLSwYA5s4JbgAAAHbtOCLucyq/RsRyXdKziQMwBe0HVvXV86GFAgD8QQANAADAvpzXT07lH7UbUz80AGOVUzlqwbNT2wAAf+MENwAAAPt21fqhFyYPwJi0nufriHgSPgMAfJoAGgAAgNdQ+6FvcioP+qEBGIOcyrL1PF9aGADA5znBDQAAwGs6bf3Qv0TESj80AEPTfihVXz0fWw4AwNcJoAEAABiCi4h4186a6ocG4NW1nuf6vXRuGwAA384JbgAAAIbioPVDb3Iq72wFgNfQep5XredZ+AwA8EICaAAAAIbmMCLet37oE9sBYF9yKovW83xl6AAA38cJbgAAAIaq9kM/tn7opbPcAOxK63lete8eAAB+gBfQAAAADF3th37OqSxtCoCeas9zTuU2Iu6FzwAAfXgBDQAAwBjUfuifWgi9WJf0YGsAfK/a81yva7TPgUECAPTjBTQAAABjUvuh71s/9JHNAfBSOZV3EbFpPc/CZ+y5CyMAACAASURBVACAzryABgAAYIzqmdSnnMrPtbNTPzQAX5NTOYmIa6e2AQB2ywtoAAAAxuyy9UMvbBGAT6nntlvP86PwGQBg9wTQAAAAjF09n3qTU9nkVM5sE4A/5VRqx/NzRFwYCgDAfjjBDQAAwFQct37oXyNiuS7p2WYB5qn9IKm+ej70VwAAYL/+j727O47q2BowvC58jzNARMAQAaI6AEQEiAgY7ncVo6p971EEliKwFEAXIgKGCBAZmAy+as4y9mfzI6HRaP88TxV1bvfp1uFQWt39GkADAAAwNU/bn67Uo9b61IcGmI+u1L0cPHtqGwDgjniCGwAAgKl6HREbfWiA6cvO8zoiPhg+AwDcLQNoAAAApux+9qEv9KEBpikPGrXswktbDABw9zzBDQAAwBw8zj70aUSs9KEBxi8PFrVbzw9tJwDAcLgBDQAAwJw8z2e5V3YdYJxa57kr9awdLDJ8BgAYHjegAQAAmJt7rQ+dT7Yu+1rO/AQADF/rPLe/t7PxDwDAQLkBDQAAwFy1PvQf2Yde+CkAGK48NLQxfAYAGD43oAEAAJi71od+15V6nH3oP+e+IABDkZ3nVf5dDQDACLgBDQAAAP/zMiIuu1KX1gPgbrXntrtST7LzbPgMADAiBtAAAADwt9aH/q0r9TJv3QGwY12p7cbzZUQ8t/YAAOPjCW4AAAD4r9aHftOV+jYiDvtaLq0RwO3qSj2IiHX+HQwAwEgZQAMAAMC3tWdfP3SlHrWhiD40wPZ1pS5y8OypbQCACfAENwAAAPzY6+xDH1orgO3IznMbPL8zfAYAmA4DaAAAALia1of+vSt1ow8NcDNdqcvsPL+0lAAA0+IJbgAAALieh9mHPo+IpT40wNXlAZ4TnWcAgOkygAYAAICf8zQi9vP5WH1ogO/oSt3LwbOntgEAJs4T3AAAAPDz7mUfeqMPDfBf2XleRcQHw2cAgHkwgAYAAICbu5996Iuu1IX1BPg8fD7MzvNrywEAMB+e4AYAAIDtabf73nWlnmYf2rPcwOxk53mdzXwAAGbGDWgAAADYvuft1l8+OwswC63z3JXaOs9vDJ8BAObLDWgAAAC4HZ/70PkEbbsNfWadgSlqnef291z+uWeTAQDmzQ1oAAAAuF2tD/1H9qH3rDUwJXnIZpOdZ8NnAADcgAYAAIAdaX3oD12pxxGx0ocGxqwrdZGd58c2EgCAf3IDGgAAAHbrZfahl9YdGJv23HZ2nt8ZPgMA8DUG0AAAALB77Zna37pS2yB63/oDY9CVumoHaCLiuQ0DAOBbPMENAAAAd6f1od90pZ5HxLKv5dJeAEPTlXqQz23ftzkAAPyIATQAAADcvaftT1fqURvy6EMDQ9CVuhcRJ57aBgDgOjzBDQAAAMPxOvvQh/YEuCvZeW43nj8YPgMAcF0G0AAAADAsrQ/9e1fqRh8a2LWu1GV2nl9afAAAfoYnuAEAAGCYHmYf+jQiVvrQwG3KAy8nOs8AANyUATQAAAAM2/OIOMjncPWhga3KzvM6W/QAAHBjnuAGAACA4buXfej2LPeB/QJuKjvPq+w8Gz4DALA1BtAAAAAwHu1p3D+6Ui+6Uhf2DfgZXamH2Xl+bQEBANg2T3ADAADA+DyOiHfZh156lhu4iuw8r/LvEAAAuBVuQAMAAMB4tT70ZT6jC/BVrfPclXoSEW8MnwEAuG1uQAMAAMC4fe5D55O6h30tF/YTiOw8t1cS8s89iwIAwC64AQ0AAADT0PrQb7IPvWdPYd66Ug8iYpOdZ8NnAAB2xg1oAAAAmJb2vO6HrtTj1nrVh4Z56UpdRMTaU9sAANwVN6ABAABgml5mH3ppf2H62nPb2Xl+Z/gMAMBdMoAGAACA6WrP7v7WlbrpSt23zzBNXamrduAkIp7bYgAA7ponuAEAAGD6HmYf+jwiln0tl/Ycxi8PlpxkAx4AAAbBABoAAADm42n705V61Bqx+tAwTl2pezl49tQ2AACD4wluAAAAmJ/X2Yc+tPcwHtl5XkfEB8NnAACGygAaAAAA5qn1oX/vSr3Qh4bhywMj7fn8l7YLAIAh8wQ3AAAAzNvj7EOfRsRKHxqGJQ+IrLPlDgAAg+cGNAAAANA8j4hNV+rKasDda53nrtSzdkDE8BkAgDFxAxoAAAD4S3uW+3U+9bvsazmzMrBbrfPc/veXrXYAABgdN6ABAACAf7sfEX9kH3phdWA38vDHxvAZAIAxcwMaAAAA+JbWh36Xfeh2I/pPKwXbl53nVf5vDgAARs0NaAAAAOBHWh/6sit1aaVge7LzfJKdZ8NnAAAmwQAaAAAAuIrWh/6tK/Uyb2sCN9CVusrntp9bRwAApsQT3AAAAMB1tD70m67UtxFx2NdyafXg6rpSDyJinf9bAgCAyTGABgAAAH5Gey74Q1fqcWvX6kPD93WlLnLw7KltAAAmzRPcAAAAwE28zD70oVWE/+pK/TU7z+8MnwEAmAMDaAAAAOCmWh/6967UjT40/K0rddkOaOg8AwAwJ57gBgAAALblYfahzyNiqQ/NXOVBjBOdZwAA5sgAGgAAANi2pxGx35XaerdrfWjmoit1LwfPntoGAGC2PMENAAAA3Ib2LPfriNjoQzN12XleRcQHw2cAAObOABoAAAC4TfezD32hD80U5QGLyzxwAQAAs+cJbgAAAGAXHmcf+jT70J7lZtTyQMU62+cAAEByAxoAAADYpefttmg+Vwyj0zrPXaln7UCF4TMAAPyXG9AAAADArn3uQ+fTxe029JkdYOha57n9vOafezYMAAC+zg1oAAAA4K60PvQf2Yde2AWGKg9LbLLzbPgMAADf4QY0AAAAcNdaH/pdV+pxRKz0oRmK7Dyv8mcUAAC4AjegAQAAgKF4mX3opR3hLrXntrtST7LzbPgMAADXYAANAAAADEl73vi3rtTLvH0KO9WV2m48X0bEcysPAADX5wluAAAAYIhaH/pNV+rbiDjsa7m0S9ymrtSDiFjnzx4AAPCTDKABAACAIWvPH3/oSj1qw0F9aLatK3UvIk48tQ0AANvhCW4AAABgDF5nH/rQbrEN2XluN54/GD4DAMD2GEADAAAAY9H60L93pW70obmJrtRldp5fWkgAANguT3ADAAAAY/Mw+9CnEbHSh+aq8uDCic4zAADcHgNoAAAAYKyeR8RBPqOsD803Zee5/Zw8tUoAAHC7PMENAAAAjNm97ENv9KH5t+w8r7LzbPgMAAA7YAANAAAATMH97ENfdKUu7Ch5IOEyDygAAAA74gluAAAAYEoeR8S77EMvPcs9P9l5XmcrHAAA2DE3oAEAAIApan3oy3x+mRloneeu1JOIeGP4DAAAd8cNaAAAAGCqPveh8ynmdhv6zE5PT+s8t/3NP/fmvh4AAHDX3IAGAAAApq71of/IPvSe3Z6OrtSDiNhk59nwGQAABsANaAAAAGAuWh/6Q1fqcUSs9KHHqyt1kZ3nx3NfCwAAGBo3oAEAAIC5eZl96KWdH5f23HZ2nt8ZPgMAwDAZQAMAAABz1J5r/q0rddOVuu8nYPi6Ulft4EBEPJ/7WgAAwJB5ghsAduNJe+bRLQ0AgMF5GBFvulLPI2LZ13Jpi4YlDwicZMsbAAAYODegAWAH+lou+lraL85eRMRHaw4AMDhPsw+9as88256715W615V60Q4IGD4DAMB4GEADwA71tbSbG4uIOLLuAACD9Dr70Ie2525k53ndDgR4QQgAAMbHABoAdqyv5c++lvYc94OIOLf+AACD0/rQv7fbt/rQu9WVuszO88s5/fcGAIAp0YAGgDuSfcGD/KXmOvuDAAAMx+PsQ59GxEof+vb4NzEAAEyHATQA3LHWh27Pcuczj+u8cQMAwHA8z4OD7d9q6/aijb3ZjtZ5zn8DP53Cfx8AAMAT3AAwGNmHbr+AO7YrAACDcy/70Juu1APbczPZeV5l59nwGQAAJsQAGgAGJPvQy+xDv7U3AACDcz8i/sg+9ML2XF++/HOZA30AAGBiPMENAAOUfcH9bOGd5C86AQAYjtaHfpd96KVnuX8s/227yrUDAAAmyg1oABiw1ofua2nPcr+KiE/2CgBgcFof+jKfk+YrWue5K7Udqnxj+AwAANNnAA0AI9DXss4+9Kn9AgAYnM996K7Uy7zlS8rB/CYH9QAAwAx4ghsARiKfdTzsSm3D6LXbIwAAg9OyKW+6Ut+2f7dlVmWWulIP8t+sUjIAADAzBtAAMDJ9LZvsQ/ulHgDAMLWDgh+6Uo9b83hOfeiu1IXDkgAAMG+e4AaAkeprOcs+9JE+NADAIL3MPvTh1LenK/XX7Dy/M3wGAIB5M4AGgJHra2ldvYU+NADAILU+9O9dqZup9qG7Updt0K7zDAAAhCe4AWAasi94mLdOVm6dAAAMzsPsQ59HxHIKfegcqJ9IwgAAAP/kBjQATEhfy0VfS/tF4AvPcgMADNLT7EOv2rPVY9yirtS9rtSLNlA3fAYAAP7NABoAJqivpd1E+asPDQDA8LyOiM2Y+tDZeV63AboXdwAAgG8xgAaAiepr+TP70A8i4tw+AwAMzv3sQ18MvQ+dg/L2bPjLAXwOAAAwYBrQADBx2Rc8yF9qrrM/CADAcDzOPvRpRKyG1If2b0gAAOC63IAGgJnIPvQiIl7pQwMADNLzfJb7YAgfl89tvzF8BgAArsMAGgBmpq9lnX3oY3sPADA49yJiMZCPGsp3AAAAI2IADQAzlH3oZfah3/oZAAAAAABgGwygAWDGWl+wr6V1/Z5ExEc/CwAAAAAA3IQBNADwVx+6Pct9pA8NAAAAAMDPMoAGAL7oa1llH/rUqgAAAAAAcF0G0ADA/5N96MOIeKQPDQAAAADAdRhAAwBf1deyyT70C31oAAAAAACuwgAaAPiuvpaTiFjoQwMAAAAA8CMG0ADAD+Wz3KscROtDAwAAAADwVQbQAMCV9bVcZh/6SUS8t3IAAAAAAPyTATQAcG19LRd9LYvsQ3uWGwAAAACAzwygAYCfln3ovexDAwAAAAAwcwbQAMCN/KMP/SAizq0mAAAAAMB8GUADAFuRfeiD7EN/tKoAAAAAAPNjAA0AbFX2oduz3K/0oQEAAAAA5sUAGgC4FX0t6+xDH1thAAAAAIB5MIAGAG5N9qGXEfEoIt5aaQAAAACAaTOABgBuXV/Lpq9lPyKe6UMDAAAAAEyXATQAsDN9LWfZhz7ShwYAAAAAmB4DaABg5/paVtmHPrX6AAAAAADTYQANANyJ7EMfRsQTfWgAAAAAgGkwgAYA7lRfy0X2oV/oQwMAAAAAjJsBNAAwCH0tJxGx0IcGAAAAABgvA2gAYDDyWe5VDqLP7QwAAAAAwLgYQAMAg9PXctnXcpB96Pd2CAAAAABgHAygAYDByj70IvvQnuUGAAAAABg4A2gAYPCyD70XEcd2CwAAAABguAygAYBRyD70MiIeRMRbuwYAAAAAMDwG0ADAqGQfej/70B/tHgAAAADAcBhAAwCjlH3o9iz3K31oAAAAAIBhMIAGAEatr2WdfehTOwkAAAAAcLcMoAGA0cs+9GFEPNKHBgAAAAC4OwbQAMBk9LVssg/9TB8aAAAAAGD3DKABgMnpaznLPvSRPjQAAAAAwO4YQAMAk9XXsoqIhT40AAAAAMBuGEADAJPW13KZfegn+tAAAAAAALfLABoAmIW+lovsQ7/wLDcAAAAAwO0wgAYAZqWv5SQi/upDAwAAAACwRQbQAMDs9LX8mX3oBxFx7icAAAAAAGA7DKABgNnKPvRB9qHf+0kAAAAAALgZA2gAYPayD72IiFf60AAAAAAAP88AGgAg9bWssw99bE0AAAAAAK7PABoA4B+yD73MPvRbawMAAAAAcHUG0AAAX5F96P3sQ3+0RgAAAAAAP2YADQDwHdmHbs9yH+lDAwAAAAB8nwE0AMAV9LWssg99ar0AAAAAAL7OABoA4IqyD30YEY/0oQEAAAAA/ssAGgDgmvpaNtmHfqEPDQAAAADwNwNoAICf1NdyEhELfWgAAAAAgP8xgAYAuIF8lnuVg2h9aAAAAABg1gygAQC2oK/lMvvQTyLivTUFAAAAAObIABoAYIv6Wi76WhbZh/YsNwAAAAAwKwbQAAC3IPvQe9mHBgAAAACYBQNoAIBb8o8+9IOIOLfOAAAAAMDUGUADANyy7EMfZB/6o/UGAAAAAKbKABoAYEeyD92e5X6lDw0AAAAATJEBNADAjvW1rLMPfWztAQAAAIApMYAGALgD2YdeRsSjiHhrDwAAAACAKTCABgC4Q30tm76W/Yh4pg8NAAAAAIydATQAwAD0tZxlH/pIHxoAAAAAGCsDaACAAelrWWUf+tS+AAAAAABjYwANADAw2Yc+jIgn+tAAAAAAwJgYQAMADFRfy0X2oV/oQwMAAAAAY2AADQAwcH0tJxGx0IcGAAAAAIbOABoAYATyWe5VDqLP7RkAAAAAMEQG0AAAI9LXctnXcpB96Pf2DgAAAAAYEgNoAIARyj70IvvQnuUGAAAAAAbBABoAYMSyD70XEcf2EQAAAAC4awbQAAAjl33oZUQ8iIi39hMAAAAAuCsG0AAAE5F96P3sQ3+0rwAAAADArhlAAwBMTPah27Pcr/ShAQAAAIBdMoAGAJiovpZ19qFP7TEAAAAAsAsG0AAAE5Z96MOIeKQPDQAAAADcNgNoAIAZ6GvZZB/6mT40AAAAAHBbDKABAGakr+Us+9BH+tAAAAAAwLYZQAMAzFBfyyoiFvrQAAAAAMA2GUADAMxUX8tl9qGf6EMDAAAAANtgAA0AMHN9LRfZh37hWW4AAAAA4CYMoAEA+Kyv5SQi/upDAwAAAABcmwE0AABf9LX8mX3oBxFxbmUAAAAAgOswgAYA4D+yD32Qfej3VggAAAAAuAoDaAAAvin70IuIeKUPDQAAAAD8iAE0AAA/1Neyzj70sdUCAAAAAL7FABoAgCvJPvQy+9BvrRoAAAAA8G8G0AAAXEv2ofezD/3R6gEAAAAAfzGABgDgp2Qfuj3LfaQPDQAAAACEATQAADfV17LKPvSpxQQAAACAeTOABgDgxrIPfRgRj/ShAQAAAGC+DKABANiavpZN9qFf6EMDAAAAwPwYQAMAsHV9LScRsdCHBgAAAIB5MYAGAOBW5LPcqxxE60MDAAAAwAwYQAMAcKv6Wi6zD/0kIt5bbQAAAACYLgNoAAB2oq/loq9lkX1oz3IDAAAAwAQZQAMAsFPZh97LPjQAAAAAMCEG0AAA7Nw/+tAPIuLcDgAAAADANBhAAwBwZ7IPfZB96I92AgAAAADGzQAaAIA7l33o9iz3K31oAAAAABgvA2gAAAajr2WdfehjuwIAAAAA42MADQDAoGQfepl96Ld2BwAAAADGwwAaAIBByj70fkQ804cGAAAAgHEwgAYAYND6Ws6yD32kDw0AAAAAw2YADQDAKPS1rLIPfWrHAAAAAGCYDKABABiN7EMfRsQTfWgAAAAAGB4DaAAARqev5SL70C/0oQEAAABgOAygAQAYrb6Wk4hY6EMDAAAAwDAYQAMAMGr5LPcqB9HndhMAAAAA7o4BNAAAk9DXctnXcpB96Pd2FQAAAAB2zwAaAIBJyT70IvvQnuUGAAAAgB0ygAYAYJKyD72XfWgAAAAAYAcMoAEAmKx/9KEfRMRbOw0AAAAAt8sAGgCAycs+9H72oT/acQAAAAC4HQbQAADMRvah27Pcr/ShAQAAAGD7DKABAJidvpZ19qFP7T4AAAAAbI8BNAAAs5R96MOIeKQPDQAAAADbYQANAMCs9bVssg/9TB8aAAAAAG7GABoAAP43iD7LPvSRPjQAAAAA/BwDaAAA+Ie+llVELPShAQAAAOD6DKABAOBf+lousw/9RB8aAAAAAK7OABoAAL6hr+Ui+9Av9KEBAAAA4McMoAEA4Af6Wk7yWe4jawUAAAAA32YADQAAV9DX8mf2oR9ExLk1AwAAAID/MoAGAIBryD70Qfah31s7AAAAAPibATQAAPyE7EO3Z7lfRcQnawgAAAAABtAAAHAjfS3riNiLiGMrCQAAAMDcGUADAMANZR96mX3ot9YTAAAAgLkygAYAgC3JPvR+9qE/WlcAAAAA5sYAGgAAtiz70O1Z7iN9aAAAAADmxAAaAABuSV/LKvvQp9YYAAAAgDkwgAYAgFuUfejDiHikDw0AAADA1BlAAwDADvS1bLIP/UwfGgAAAICpMoAGAIAd6ms5i4iFPjQAAAAAU2QADQAAO5bPcq9yEK0PDQAAAMBkGEADAMAd6Wu5zD70k4h4bx8AAAAAGDsDaAAAuGN9LRd9Le029AvPcgMAAAAwZgbQAAAwEH0tJxGxl31oAAAAABgdA2gAABiQf/ShH0TEub0BAAAAYEwMoAEAYICyD32QfeiP9ggAAACAMTCABgCAAcs+dHuW+5U+NAAAAABDZwANAAAj0Neyzj70sf0CAAAAYKgMoAEAYCSyD73MPvRb+wYAAADA0BhAAwDAyGQfej8inulDAwAAADAkBtAAADBSfS1n2Yc+0ocGAAAAYAgMoAEAYOT6WlbZhz61lwAAAADcJQNoAACYgOxDH0bEE31oAAAAAO6KATQAAExIX8tF9qFf6EMDAAAAsGsG0AAAMEF9LScRsdCHBgAAAGCXDKABAGCi8lnuVQ6iz+0zAAAAALfNABoAACaur+Wyr+Ug+9Dv7TcAAAAAt8UAGgAAZiL70IvsQ3uWGwAAAICtM4AGAICZyT70XvahAQAAAGBrDKABAGCG/tGHfhARb/0MAAAAALANBtAAADBj2Yfezz70Rz8LAAAAANyEATQAAPBXH7o9y/1KHxoAAACAn2UADQAAfNHXss4+9KlVAQAAAOC6DKABAID/J/vQhxHxSB8aAAAAgOswgAYAAL6qr2WTfehn+tAAAAAAXIUBNAAA8F19LWfZhz7ShwYAAADgewygAQCAK+lrWUXEQh8aAAAAgG/5xcoAAABX1ddyGRGHXal7Fg0AAACAf3MDGgAAuLYcRAMAAADA/2MADQAAAAAAAMBWGEADAAAAAAAAsBUG0AAAAAAAAABshQE0AAAAAAAAAFthAA0AAAAAAADAVhhAAwAAAAAAALAVBtAAAAAAAAAAbIUBNAAAAAAAAABbYQANAAAAAAAAwFYYQAMAAAAAAACwFQbQAAAAAAAAAGyFATQAAAAAAAAAW2EADQAAAAAAAMBWGEADAAAAAAAAsBUG0AAAAAAAAABshQE0AAAAAAAAAFthAA0AAAAAAADAVhhAAwAAAAAAALAVBtAAAAAAAAAAbIUBNAAAMGYnEXFqBwEA+IFPEXFkkQDg9hlAAwAAo9XXctnXchgRTyLirZ0EAOAr2oHFvb6WlcUBgNv3izUGAADGrq/lIiL2u1LbMLr9YvG+TQUAmL12QHHZ17KZ+0IAwC65AQ0AAExGX0t7knvheUUAgFn7GBEv+lr2DZ8BYPcMoAEAgEnpa/kzn1d8EBHndhcAYDb+6jwv8mAiAHAHPMENAABMUutDR8RBV+p+RKwj4qGdBgCYrNZ5XuW/AQGAO2QADQAATFr2oRfZh26D6Ht2HABgMt5n5/nClgLAMHiCGwAAmIV8hnEvIo7tOADA6H3KzvPC8BkAhsUAGgAAmI3sQy+zD/3WzgMAjFLrPO/pPAPAMHmCGwAAmJ1sA+5nH7r94vK+nwIAgME7z+e2dZ4BYMAMoAEAgNnK5xr3ulJX7ZeZ+tAAAIP0MSIOPbUNAOPgCW4AAGD2+lpW2Yc+nftaAAAMSOs8v+pr2TN8BoDxMIAGAAD4uw99GBGP9KEBAO7ccXae17YCAMbFE9wAAAD/0NeyyT70QUSs9aEBAHbqbT63rfMMACPlBjQAAMBX9LWcRcQiIo7y+UcAAG5P6zw/62vZN3wGgHFzAxoAAOAb2rPcEbHqSj1p/xkRz60VAMBWtYN+676WlWUFgGlwAxoAAOAH2i2c7EM/0YcGANia0+w8Gz4DwIS4AQ0AAHBFfS0X2Yc+zD70PWsHAHBt7UDfKv9tBQBMjBvQAAAA19TX0p7k3ss+NAAAV9M6zy+y82z4DAATZQANAADwE1ofOp+LfBAR59YQAOCbPuXBvUUe5AMAJswT3AAAADfQ+tARcdCVuh8R7Req960nAMAX7aDeMv/NBADMgAE0AADAFuQzkntdqcvWNNSHBgBm7n0Onj21DQAz4wluAACALeprWWcf+ti6AgAz9Ck7zwvDZwCYJwNoAACALcs+9DL70G+tLwAwE63zvKfzDADz5gluAACAW5Ktw/2u1IOIWOtDAwAT1Q7cHeo8AwBhAA0AAHD7+lrOIuKsK7W1oZf60ADARHzMwbOntgGALzzBDQAAsCN9LavsQ59acwBgxFrn+VVfy57hMwDwbwbQAAAAO5R96MOIeKQPDQCM0HF2ntc2DwD4Gk9wAwAA3IG+lk32odsweqUPDQAMXDs4t8x/wwAAfJMb0AAAAHeor+UkIhYRcZTPWQIADEnrPD/ra9k3fAYArsINaAAAgDvWnuVut6C7Uk/yNvRzewIA3LF2MG7d17KyEQDAdbgBDQAAMBB9LZfZh34SEe/tCwBwR07bCy2GzwDAz3ADGgAAYGD6Wi7aL32zD72OiHv2CADYgdZ5XuW/RQAAfoob0AAAAAOVfei97EMDANyW1nl+kZ1nw2cA4EYMoAEAAAas9aHz+csHeSsJAGCbjvK57ROrCgBsgye4AQAARqD1oSNivyt1PyLaL4jv2zcA4AbOI2KZ/8YAANgaA2gAAIARyWcx97pSl63RqA8NAFzT+xw8e2obALgVnuAGAAAYob6Wdfahj+0fAHAFn7LzvDB8BgBukwE0AADASGUfut2EfqQPDQB8RzuwtqfzDADsgie4AQCA0epKPcxfpq7mvIt9LZvsQx9ExFofGgBI7YDaoc4zALBLbkAD2wtzgAAAIABJREFUAABj1p6gft2VepnD11nraznra2lrcpTPbAIA8/QxIp70tewbPgMAu2YADQAATEG78ftHV+pFV+re3Hc0b4S3dTgdwOcAALvTDqC9agfSdJ4BgLtiAA0AAEzJ44j40JW67kr9dc47m33o9kT5E31oAJiF00yTrG03AHCXDKABAIApehkR7Vnu5dx3t91+as9vRsSLfI4TAJiWdtDsUTt41g6g2VsA4K4ZQAMAAFN1LyJ+60rddKXuz32X+1pOImKRfWgAYPzawbJn2Xne2E8AYCgMoAEAgKl7GBFvulLP5t6Hzme5Wx/6QUScD+CTAIDra53no+w8n1k/AGBoDKABAIC5eJp96JU+dLnsaznIPvT7AXwSAHA1rfO8yANlAACDZAANAADMzevsQx/OfeezD73IPvSnAXwSAPB1rfP8JDvPl9YIABgyA2gAAGCOWh/6967UC33oL33o9jz58QA+BwD4Wzsg9iI7zxfWBQAYAwNoAABgzh5nH/pEH/pzH3qZfei3A/gkAJi7o3ZALA+KAQCMxi+2CgAAIJ5HxEFX6joi1m0YO9clyWc99/NmePuF9/0BfBYAzMl5RCw9tQ0AjJUb0AAAAP9zL/vQm67Ug7mvSfah263wV/rQALAT77PzfGD4DACMmQE0AADA/9du/P6RfejF3Nemr2WdfejTAXwOAExRO+j1qq9lofMMAEyBATQAAMDXtT70u+xD/zrnNco+9GFEPNKHBoCtOs7O89qyAgBTYQANAADwfa0PfdmVupz7OvW1bPpaWhv6WUR8HMAnAcBYtQNdD/paWuv5T7sIAEyJATQAAMCPtT70b12pbRC9P/f16ms5yz70kT40AFzLx+w87+s8AwBTZQANAABwda0P/Sb70HtzX7e+llVELPShAeCH2oGto3aAS+cZAJg6A2gAAIDra33oD12pa33ocpl96Cf60ADwVafZeV5ZHgBgDgygAQAAft7L7EMfzn0N222u7EO/8Cw3AHzWDmY9age1dJ4BgDkxgAYAALiZ1of+vSt1ow/9eRB90m55ZR8aAOaodZ6fZed54ycAAJgbA2gAAIDteJh96LO596HbLa98ZvRBRJwP4JMAYBc+5QGsRV/LmRUHAObqFzsPAACwVU/bn67U9gvo9Zyf3Gx96Ig4yJvh6xzSA8AUtc7zKv+/DwBg1tyABgAAuB2vI2KjD/2lD72IiFf60ABMTOs8P8nOs+EzADB7YQANAABwq+5nH/pCH/rzIHqdfejjAXwOANxEO1D1IjvPF1YSAOBvBtAAAAC373H2oU+6Un+d83pnH3qZfei3A/gkALiultnY62s5sXIAAP9lAA0AALA7zyPisit1Nfc1b8+Utltj7dnSiPg4gE8CgB85bweo+lpa6/lPqwUA8HUG0AAAALt1r/Whu1LbIPpg7muffei9vE2mDw3AEH3MzvOBzjMAwI8ZQAMAANyN1of+I/vQi7nvQbtNln3o0wF8DgBEHox61Q5K6TwDAFydATQAAMDdan3od12pa33oz33ow4h4pA8NwB07zs7z2kYAAFyPATQAAMAwvMw+9HLu+9HXssk+9DN9aAB27G12npc6zwAAP8cAGgAAYDhaH/q37EPvz31f+lrOImKhDw3ADrQDT8/aASidZwCAmzGABgAAGJ7Wh36Tfei9Oe9PPsu9ykG0PjQA29YOOB1l5/nM6gIA3JwBNAAAwHC1PvSHrtSVPnS5zD70k4h4P4BPAmD8TrPzvLKXAADbYwANAAAwfK+zD304973qa7noa2m3oV94lhuAn9Q6z4/awSadZwCA7TOABgAAGIfWh/69K3WjD/15EH3Sbq1lHxoArqJ1nl9k53ljxQAAbocBNAAAwLg8zD70mT70lz70g4g4H8AnATBMn/LA0iIPMAEAcIt+sbgAAACj9DQi9rtS1xGxnvMToq0PHREHeTO8DRbuD+CzABiG1nle5f9XAACwA25AAwAAjNe97ENv9KG/9KHbrfBX+tAAs/c+Ip5k59nwGQBghwygAQAAxu9+9qEvulIXc9/PvpZ19qGPB/A5AOzWp+w8t+e2L6w9AMDuGUADAABMx+OIeNeVetKV+uuc9zX70MvsQ78dwCcBcPta53lP5xkA4G4ZQAMAAEzP84i47EpdzX1v27OrfS2tDf0sIj4O4JMA2L520OhBX0trPf9pfQEA7pYBNAAAwDR97kN3pbZB9MHc97iv5Sz70Ef60ACT8TE7z/s6zwAAw2EADQAAMG2tD/1H9qH35r7X7XZc9qFPB/A5APycdpDoVTtYpPMMADA8BtAAAADz0PrQH7pS1/rQn/vQh+3WnD40wOgcZ+d5besAAIbJABoAAGBeXmYfejn3fW+35rIP/UIfGmDw2oGhR30tS51nAIBhM4AGAACYn9aH/i370Ptz3/++lpOIWOhDAwxSOyD0LDvPG1sEADB8BtAAAADz1frQb7pSz+beh85nuVc5iD4fwCcBzF07EHSUneezuS8GAMCYGEADAADwNPvQK33octnXcpB96PcD+CSAOTrNzvPK7gMAjI8BNAAAAH95nX3ow7mvSPahF9mH9iw3wG60zvOTvpZDnWcAgPEygAYAAOCfWh/6967UC33oL33ovexDA3A7Wuf5RXaeL6wxAMC4GUADAADwNY+zD32iD/2lD/0gb+cBsB2f8oDPIg/8AAAwAb/YRAAAAL7jeUQcdKWuI2I95ydRWx86IvbzZngblNwfwGcBjNV5RCzz71YAACbEDWgAAAB+5F72oTddqQdzX63sQ7db4a/0oQGu7X12ng8MnwEApskAGgAAgKtqN37/yD70Yu6r1teyzj708QA+B2DoPmXneaHzDAAwbQbQAAAAXFfrQ7/LPvSvc1697EMvI+KRPjTAN7XO857OMwDAPBhAAwAA8LNaH/qyK3U19xXsa9n0tbQ29LOI+DiATwIYgnYw50Ffy6od2LEjAADzYAANAADATXzuQ3eltkH0/txXsq/lLPvQR/rQwIx9zM7zvs4zAMD8GEADAACwDa0P/Sb70HtzX9F22y8iWif7dACfA7Ar7eDNq3YQR+cZAGC+DKABAADYptaH/tCVutaHLpd9LYftFqA+NDADp9l5XttsAIB5M4AGAADgNrzMPvTh3Fe33QLMPvQLfWhggtoBm0ftwI3OMwAAYQANAADALWp96N+7Ujf60J8H0Sf5LPfRAD4H4KbagZpn2XneWE0AAP5iAA0AAMBte5h96LO596Hb7cDsQz+IiPMBfBLAdbXO81F2ns+sHgAA/2YADQAAwK48zT70Sh/6cx/6IPvQ7wfwSQBX0TrPizxIAwAAX2UADQAAwK69joiNPvSXPvQi+9CfBvBJAF/TOs9PsvN8aYUAAPgeA2gAAADuwv3sQ1/oQ3/pQ7fnyY8H8DkAf2md5xfZeb6wKgAAXIUBNAAAAHfpcfahT/ShP/ehl9mHfjuATwLm7Sif2z6Z+0IAAHA9BtAAAAAMwfN8lnv2XdHsQ+9nH/rjAD4JmJfzdhCmdZ7bwRh7DwDAdRlAAwAAMBT3Wh+6K/WyK/Vg7ruSfei9vIWoDw3ctvfZeT7QeQYA4CYMoAEAABia1of+I/vQi7nvTruFmH3o0wF8DjA9n7LzvNB5BgBgGwygAQAAGKrWh36Xfehf57xL2Yc+jIhH+tDAFh23Ay46zwAAbJMBNAAAAEPX+tDtWe7l3Heqr2WTfehn+tDADbzNzvNS5xkAgG0zgAYAAGAMWh/6t+xD7899x/paziJioQ8NXNPH7Dzv6zwDAHBbDKABAAAYk9aHfpN96L0571w+y73KQbQ+NPA97aDKq76WPZ1nAABumwE0AAAAY9T60B+6Ulf60OUy+9BP9KGBrzjNzvPa4gAAsAsG0AAAAIzZ6+xDH859F9utxuxDv/AsN5AHUh61Ayo6zwAA7JIBNAAAAGPX+tC/d6Vu9KE/D6JP2m3H7EMD89M6z8+y87yx/wAA7JoBNAAAAFPxMPvQZ/rQX/rQDyLifACfBNy+T3nwZNHXcma9AQC4K7/8H3v3d1Rbsa5x+DtV596dgRCBc0UgVAcgRCBEINzPKidV416IQIhACKBLiECIQMhAI9inmv1tXR5df4CeMOYYzxPBXN169TL65+QBAACYmG8iYmdZauudns756dnWh46Ivfwy/DRHemB6Wud5lf/PAwDAm/IFNAAAAFP0Rfahb/Wh/+hDLyLiWB8aJqV1nnez82x8BgBgFAzQAAAATNmX2Ye+1od+HKJPsw99NoKfAzxf+0OSw+w8XztHAADGxAANAADAHHydfejzZan/mvONZx/6KPvQNyP4ScDTtM7z1lDLuXMDAGCMDNAAAADMybcRcb8sdTX3W2/P9bavJyNiPyIeRvCTgI+7an84MtSymnPbHgCA8TNAAwAAMDePfehlqW2I3pv77Q+1XA61bOVXlfrQMD532Xne03kGAGATGKABAACYq9aH/in70Ftz/6+gfVWZfeiLEfwc4D9/EHI81LLQeQYAYJMYoAEAAJi71of+dVnqqT70Yx/6ICLe6UPDmzrLzvOpawAAYNMYoAEAAOA/vss+9NHcz2Oo5Tb70If60PCqbrLzfKTzDADApjJAAwAAwJ9aH/qH7EPvzP1chlrOI2KhDw1r95Cd5x2dZwAANp0BGgAAAP6u9aF/XpZ6Ofc+dD7LvcohWh8a+mp/2HEy1LKl8wwAwFQYoAEAAODDvsk+9EofutxnH3o3Iu5G8JNg011k53nlJgEAmBIDNAAAAHza99mHPpj7WbWvNIdaFtmH9iw3PF3rPL9rf9Ch8wwAwBQZoAEAAODztD70j8tSb/Wh/+hDb2UfGvi01nnez87zrfMCAGCqDNAAAADwNF9lH/pcH/qPPvR2ftUJ/N3v+Ycai6GWS+cDAMDU/a8bBgAAgGf5NiL2lqWeRsTpnJ/SbX3oiNjJL8Pbl9FfjuBnwRi0zvMq/x8BAIBZ8AU0AAAAPN8X2Yduz3Lvzf0csw/dvgo/1odm5u4iYjc7z8ZnAABmxQANAAAAL9e++P1pWer1stTF3M9zqOU0+9BnI/g58JraH14cDrW057avnTwAAHNkgAYAAIB+vo6IX7IP/a85n2v2oY8i4p0+NDPROs9bQy3nLhwAgDkzQAMAAEB/rQ99vyx1NfezHWq5HWppbej9iHgYwU+C3q4iYnuoZTXnFjwAAPyXARoAAADW47EPvSy1DdE7cz/joZbL7EOf6EMzEQ/Zed7TeQYAgD8ZoAEAAGC9Wh/65+xDb839rNtXotmHvhjBz4HnaH9Acdz+oELnGQAA/s4ADQAAAK+j9aF/XZZ6qg/92Ic+aF+P6kOzYc6y83zq4gAA4J8ZoAEAAOB1fZd96KO5n3v7ejT70If60IzcTXaej3SeAQDg4wzQAAAA8PpaH/qHZam3+tCPQ/R5RCz0oRmh9ocR++0PJXSeAQDg8xigAQAA4O18lX3oy7n3ofNZ7lUO0Vcj+EnMW/tDiJPsPF/O/TAAAOApDNAAAADw9r7JPvRKH7rcD7XsZR/6bgQ/ifm5yM7zyt0DAMDTGaABAABgPL6PiPYs98Hc7yT70IvsQ3uWm9fQOs/vhloOdJ4BAOD5DNAAAAAwLl9GxI/LUq/1of/oQ7fnyc9G8HOYptZ5PszO8607BgCAlzFAAwAAwDh9nX3oc33oxz70UURs51eq0MNj57l1x/MPHQAAgA4M0AAAADBu3+az3LPv0WYfeif70A8j+Elsrqscnlee2wYAgL4M0AAAADB+X7Q+9LLU+2Wpe3O/r+xDt6/Cj/WheaK79gcMQy177Q8aHB4AAPRngAYAAIDN0frQP2UfejH3extqOc0+9MUIfg7j9nt2nttXz9fuCgAA1scADQAAAJun9aF/yT70v+Z8f9mHPoiId/rQfEDrPG/pPAMAwOswQAMAAMDman3o9iz30dzvcKjlNvvQ+/rQpPYHCds6zwAA8LoM0AAAALDZWh/6h+xD78z9LodaLrMPfaIPPVsP2Xne0XkGAIDXZ4AGAACAaWh96J+zD7019zttX71GxEIfelbaHxwctz9A0HkGAIC3Y4AGAACAaWl96F+XpZ7qQ5f77EPv6kNP3ll2nk/nfhAAAPDWDNAAAAAwTd9lH/pg7vfbvobNPvShPvTktD8seDfUcqTzDAAA42CABgAAgOlqfegfl6Xe6kM/DtHn+Sz3yQh+Di/T/pBgPzvPt84SAADGwwANAAAA0/dV9qEv596Hbl/JZh96OyKuRvCTeJrWeT7JzvOlswMAgPExQAMAAMB8fBMR7WvolT70Yx96L/vQdyP4SXzaRXaeV84KAADGywANAAAA89Ke5f4+h2h96P/0oduz3Mf5dS3j0zrPu0MtBzrPAAAwfgZoAAAAmKcvsw99rQ/9OESftq9rI+JsBD+H/2id58PsPF87EwAA2AwGaAAAAJi3r7MPfe5Z7sc+9FH2oW9G8JPm6rHzHBGLoZbzuR8GAABsGgM0AAAA0HwbEfetDz3308g+9E72oR9G8JPm5CqH55XntgEAYDMZoAEAAID/euxDL0ttQ/Te3E8l+9Bb+TWuPvR63WXnea/9AcCU/6EAADB1BmgAAADg/2t96J+yD72Y++m0r3GzD30xgp8zNb9n53mh8wwAANNggAYAAAA+pPWhf1mWeqoP/diHPoiId/rQ3Zy1YV/nGQAApsUADQAAAHzKd9mHPpr7SQ213GYfel8f+tnagL891HKk8wwAANNjgAYAAAA+R+tD/5B96J25n9hQy2VELPShn+QhO887Os8AADBdBmgAAADgKVof+udlqZfLUrfmfHL5LPcqh2h96A9rA/3xUMuWzjMAAEyfARoAAAB4jm8i4tdlqSt96HKffejdiLgbwU8ak4vsPJ/O/SAAAGAuDNAAAADAS3yffeiDuZ9i+7p3qKV9DX3oWe7HzvO7NszrPAMAwLwYoAEAAICXan3oH5el3upDPw7R5+2r3+xDz03rPO9n5/l2hv9+AACYPQM0AAAA0MtX2Yc+14f+ow+9HRFXI/hJ69a++D7JzvPltP+pAADAxxigAQAAgN6+jYhbfeg/+tB72Yd+GMFPWofWeV7k4A4AAMycARoAAABYhy+yD32rD/1HH7p9FX48oT506zzvZuf5fgS/BwAAGAEDNAAAALBOX2Yf+npZ6mLuJz3Ucpp96LMR/Jznal9yH2bn+Xoz/wkAAMC6GKABAACA1/B1RPySfei5P8vd+tBH2Ye+GcFPeoqTfG77fHN+MgAA8JoM0AAAAMBran3o+9aHnvupZx96JyL2N6APfdUG89Z5bgP6CH4PAAAwUgZoAAAA4LU99qGXpbYhemfupz/Ucpl96JMR9qHvsvO8p/MMAAB8DgM0AAAA8FZaH/rn7ENvzf0W2tfF2YceS1e5fe280HkGAACe4n/+/e9/OzAAAGAj5RO+37s9mIyzHD098QwAALChfAENAAAAjMV32Yc+ciMAAACbyQANAAAAjEnrQ/+wLPVWHxoAAGDzGKABAACAMfoq+9CX+tAAAACbwwANAAAAjNk3EfFra74vS/2XmwIAABg3AzQAAACwCb7PPvSB2wIAABgvAzQAAACwKVof+sdlqdf60AAAAONkgAYAAAA2zdfZhz7XhwYAABgXAzQAAACwqb6NiFt9aAAAgPEwQAMAAACb7IvsQ7ches9NAgAAvC0DNAAAADAFX0bET9mHXrhRAACAt2GABgAAAKak9aF/yT60Z7kBAABemQEaAAAAmKLWh75flnrkdgEAAF6PARoAAACYqtaH/mFZahuid9wyAADA+hmgAQAAgKlrfeifsw+95bYBAADWxwANAAAAzEXrQ/+6LPVUHxoAAGA9DNAAAADA3HyXfegDNw8AANCXARoAAACYo9aH/nFZ6q0+NAAAQD8GaAAAAGDOvso+9KU+NAAAwMsZoAEAAAAivsk+9EofGgAA4PkM0AAAAAB/+j4ibvWhAQAAnscADQAAAPBXX2Yf+lofGgAA4GkM0AAAAAD/7OvsQ597lhsAAODzGKABAAAAPu7biLhvfWjnBAAA8HEGaAAAAIBP+6L1oZeltiF6z3kBAAD8MwM0AAAAwOdrfeifsg+9cG4AAAB/ZYAGAAAAeLrWh/5lWeqpPjQAAMCfDNAAAAAAz/dd9qGPnCEAAIABGgAAAOClWh/6h+xD7zhNAABgzgzQAAAAAH20PvTP2YfecqYAAMAcGaABAAAA+mp96F+Xpa70oQEAgLkxQAMAAACsx/fZhz5wvgAAwFwYoAEAAADWp/Whf1yWeqsPDQAAzIEBGgAAAGD9vso+9Lk+NAAAMGUGaAAAAIDX821E3OpDAwAAU2WABgAAAHhdX2Qf+lYfGgAAmBoDNAAAAMDb+DL70NfLUhfuAAAAmAIDNAAAAMDb+joifsk+tGe5AQCAjWaABgAAABiH1oe+X5a65z4AAIBNZYAGAAAAGI/Wh/YcNwAAsLEM0AAAAAAAAAB0YYAGAAAAAAAAoAsDNAAAAAAAAABdGKABAAAAAAAA6MIADQAAAAAAAEAXBmgAAAAAAAAAujBAAwAAAAAAANCFARoAAAAAAACALgzQAAAAAAAAAHRhgAYAAAAAAACgCwM0AAAAAAAAAF0YoAEAAAAAAADowgANAAAAAAAAQBcGaAAAAAAAAAC6MEADAAAAAAAA0IUBGgAAAAAAAIAuDNAAAAAAAAAAdGGABgAAAAAAAKALAzQAAAAAAAAAXRigAQAAAAAAAOjCAA0AAAAAAABAFwZoAAAAAAAAALowQAMAAAAAAADQhQEaAAAAAAAAgC4M0AAAAAAAAAB0YYAGAAAAAAAAoAsDNAAAAAAAAABdGKABAAAAAAAA6MIADQAAAAAAAEAXBmgAAAAAAAAAujBAAwAAAAAAANCFARoAAAAAAACALgzQAAAAAAAAAHRhgAYAAAAAAACgCwM0AAAAAAAAAF0YoAEAAAAAAADowgANAAAAAAAAQBcGaAAAAAAAAAC6MEADAAAAAAAA0IUBGgAAAAAAAIAuDNAAAAAAAAAAdGGABgAAAAAAAKALAzQAAAAAAAAAXRigAQAAAAAAAOjCAA0AAAAAAABAFwZoAAAAAAAAALowQAMAAAAAAADQhQEaAAAAAAAAgC4M0AAAAAAAAAB0YYAGAAAAAAAAoAsDNAAAAAAAAABdGKABAAAAAAAA6MIADQAAAAAAAEAXBmgAAAAAAAAAujBAAwAAAAAAANCFARoAAAAAAACALgzQAAAAAAAAAHRhgAYAAAAAAACgCwM0AAAAAAAAAF0YoAEAAAAAAADowgANAAAAAAAAQBcGaAAAAAAAAAC6MEADAAAAAAAA0IUBGgAAAAAAAIAuDNAAAAAAAAAAdGGABgAAAAAAAKALAzQAAAAAAAAAXRigAQAAAAAAAOjCAA0AAAAAAABAFwZoAAAAAAAAALowQAMAAAAAAADQhQEaAAAAAAAAgC4M0AAAAAAAAAB0YYAGAAAAAAAAoAsDNAAAAAAAAABdGKABAAAAAAAA6MIADQAAAAAAAEAXBmgAAAAAAAAAujBAAwAAAAAAANCFARoAAAAAAACALgzQAAAAAAAAAHRhgAYAAAAAAACgCwM0AAAAAAAAAF0YoAEAAAAAAADowgANAAAAAAAAQBcGaAAAAAAAAAC6MEADAAAAAAAA0IUBGgAAAAAAAIAuDNAAAAAAAAAAdGGABgAAAAAAAKALAzQAAAAAAAAAXRigAQAAAAAAAOjCAA0AAAAAAABAFwZoAAAAAAAAALowQAMAAAAAAADQhQEaAAAAAAAAgC4M0AAAAAAAAAB0YYAGAAAAAAAAoAsDNAAAAAAAAABdGKABAAAAAAAA6MIADQAAAAAAAEAXBmgAAAAAAAAAujBAAwAAAAAAANCFARoAAAAAAACALgzQAAAAAAAAAHRhgAYAAAAAAACgCwM0AAAAAAAAAF0YoAEAAAAAAADowgANAAAAAAAAQBcGaAAAAAAAAAC6MEADAAAAAAAA0IUBGgAAAAAAAIAuDNAAAAAAAAAAdGGABgAAAAAAAKALAzQAAAAAAAAAXRigAQAAAAAAAOjCAA0AAAAAAABAFwZoAAAAAAAAALowQAMAAAAAAADQhQEaAAAAAAAAgC4M0AAAAAAAAAB0YYAGAAAAAAAAoAsDNAAAAAAAAABdGKABAAAAAAAA6MIADQAAAAAAAEAXBmgAAAAAAAAAujBAAwAAAAAAANCFARoAAAAAAACALgzQAAAAAAAAAHRhgAYAAAAAAACgCwM0AAAAAAAAAF0YoAEAAAAAAADowgANAAAAAAAAQBcGaAAAAAAAAAC6MEADAAAAAAAA0IUBGgAAAAAAAIAuDNAAAAAAAAAAdGGABgAAAAAAAKALAzQAAAAAAAAAXRigAQAAAAAAAOjCAA0AAAAAAABAFwZoAAAAAAAAALowQAMAAAAAAADQhQEaAAAAAAAAgC4M0AAAAAAAAAB0YYAGAAAAAAAAoAsDNAAAAAAAAABdGKABAAAAAAAA6MIADQAAAAAAAEAXBmgAAAAAAAAAujBAAwAAAAAAANCFARoAAAAAAACALgzQAAAAAAAAAHRhgAYAAAAAAACgCwM0AAAAAAAAAF0YoAEAAAAAAADowgANAAAAAAAAQBcGaAAAAAAAAAC6MEADAAAAAAAA0IUBGgAAAAAAAIAuDNAAAAAAAAAAdGGABgAAAAAAAKALAzQAAAAAAAAAXRigAQAAAAAAAOjCAA0AAAAAAABAFwZoAAAAAAAAALowQAMAAAAAAADQhQEaAAAAAAAAgC4M0AAAAAAAAAB0YYAGAAAAAAAAoAsDNAAAAAAAAABdGKABAAAAAAAA6MIADQAAAAAAAEAXBmgAAAAAAAAAujBAAwAAAAAAANCFARoAAAAAAACALgzQAAAAAAAAAHRhgAaxVDxAAAAgAElEQVQAAAAAAACgCwM0AACwyU4j4sINAgAAAIyDARoAANhYQy2/DbUcRMS7iLhxkwAAAABvywANAABsvKGW26GWnYg4jIgHNwoAAADwNgzQAADAZAy1nEfEIiJOIuJ3NwsAAADwugzQAADApOSz3Kscoq/cLgAAAMDrMUADAACTNNRyP9SyFxG7EXHnlgEAAADWzwANAABM2lDL9VDLIvvQnuUGAAAAWCMDNAAAMAvZh97KPjQAAAAAa2CABgAAZuO9PvR2RNy4eQAAAIC+DNAAAMDsZB96J/vQD/4LAAAAAOjDAA0AAMxW9qHbs9zH+tAAAAAAL2eABgAAZm+o5TT70GdzPwsAAACAlzBAAwAA/NmHPoqId/rQAAAAAM9jgAYAAHjPUMtt9qH39aEBAAAAnsYADQAA8A+GWi6zD32iDw0AAADweQzQAAAAHzHUsoqIRURcOCcAAACAjzNAAwAAfMJQy/1Qy0FE7OpDAwAAAHyYARoAAOAzDbVcZx/6UB8aAAAA4O8M0AAAAE801HKez3KfODsAAACAPxmgAQAAnmGo5bfsQ29HxJUzBAAAADBAAwAAvEj2ofeyD33nNAEAAIA5M0ADAAB0kH3oRfahf3emAAAAwBwZoAEAADrKPvRWRJw5VwAAAGBuDNAAAACdZR/6KPvQN84XAAAAmAsDNAAAwJpkH3on+9APzhkAAACYOgM0AADAmmUfuj3LfaIPDQAAAEyZARoAAOCVDLWssg994cwBAACAKTJAAwAAvKLsQx9ExDt9aAAAAGBqDNAAAABvYKjlNvvQ+/rQAAAAwFQYoAEAAN7QUMtlRCz0oQEAAIApMEADAAC8sXyWe5VDtD40AAAAsLEM0AAAACMx1HKffehdfWgAAABgExmgAQAARmao5Tr70Iee5QYAAAA2iQEaAABgpIZaziNiK/vQAAAAAKNngAYAABix9/rQ2xFx5a4AAACAMTNAAwAAbIDsQ+9lH/rBnQEAAABjZIAGAADYINmHbs9yH+tDAwAAAGNjgAYAANhAQy2n2Yc+c38AAADAWBigAQAANlT2oY+yD33jHgEAAIC3ZoAGAADYcNmH3omIfX1oAAAA4C0ZoAEAACZiqOUy+9An+tAAAADAWzBAAwAATMxQyyr70BfuFgAAAHhNBmgAAIAJyj70QUTs6kMDAAAAr8UADQAAMGFDLdfZhz7UhwYAAADWzQANAAAwA0Mt5xGx0IcGAAAA1skADQAAMBP5LPcqh+gr9w4AAAD0ZoAGAACYmaGW+6GWvexD37l/AAAAoBcDNAAAwExlH3qRfWjPcgMAAAAvZoAGAACYuexDb2UfGgAAAODZDNAAAAC834fejogbJwIAAAA8hwEaAACAP2Qfeif70A9OBgAAAHgKAzQAAAB/k33o9iz3sT40AAAA8LkM0AAAAHzQUMtp9qEvnBIAAADwKQZoAAAAPir70AcR8U4fGgAAAPgYAzQAAACfZajlNvvQ+/rQAAAAwD8xQAMAAPAkQy2X2Yc+0YcGAAAA3meABgAA4FmGWlYRsdCHBgAAAP7LAA0AAMCzDbXcZx96Vx8aAAAAMEADAADwYkMt19mHPtSHBgAAgPkyQAMAANDNUMt5Pst94lQBAABgfgzQAAAAdDXU8lv2obcj4srpAgAAwHwYoAEAAFiL7EPvZR/6zikDAADA9BmgAQAAWKvsQ7dnuY8j4nenDQAAANNlgAYAAOBVDLWcRsRWRJw5cQAAAJgmAzQAAACvJvvQR9mHvnHyAAAAMC0GaAAAAF5d9qF3sg/94AYAAABgGgzQAAAAvJnsQ7dnuU/0oQEAAGDzGaABAAB4c0Mtq+xDX7gNAAAA2FwGaAAAAEYh+9AHEfFOHxoAAAA2kwEaAACAURlquc0+9L4+NAAAAGwWAzQAAACjNNRyGRELfWgAAADYHAZoAAAARiuf5V7lEK0PDQAAACNngAYAAGD0hlrusw+9GxF3bgwAAADGyQANAADAxhhquR5qaV9DH3qWGwAAAMbHAA0AAMDGGWo5j4it7EMDAAAAI2GABgAAYCO914fejogrtwgAAABvzwANAADARss+9F72oR/cJgAAALwdAzQAAACTkH3o9iz3sT40AAAAvA0DNAAAAJMy1HKafegzNwsAAACvywANAADA5GQf+ij70DduGAAAAF6HARoAAIDJyj70TkTs60MDAADA+hmgAQAAmLyhlsvsQ5/oQwMAAMD6GKABAACYjaGWVfahL9w6AAAA9GeABgAAYFayD30QEbv60AAAANCXARoAAIBZGmq5zj70oT40AAAA9GGABgAAYNaGWs4jYqEPDQAAAC9ngAYAAGD28lnuVQ7RV3M/DwAAAHguAzQAAACkoZb7oZa97EPfORcAAAB4GgM0AAAA/D/Zh15kH9qz3AAAAPCZDNAAAADwAdmH3so+NAAAAPAJBmgAAAD4iPf60NsRceOsAAAA4MMM0AAAAPAZsg+9k33oB2cGAAAAf2eABgAAgCfIPnR7lvtYHxoAAAD+ygANAAAAzzDUcpp96AvnBwAAAP9hgAYAAIBnyj70QUS804cGAAAAAzQAAAC82FDLbfah9/WhAQAAmDMDNAAAAHQy1HKZfegTfWgAAADmyAANAAAAnQ21rCJioQ8NAADA3BigAQAAYA2GWu6zD72rDw0AAMBcGKABAABgjYZarrMPfagPDQAAwNQZoAEAAOAVDLWc57PcJ84bAACAqTJAAwAAwCsZavkt+9DbEXHl3AEAAJgaAzQAAAC8suxD72Uf+s75AwAAMBUGaAAAAHgj2Yduz3IfR8Tv7gEAAIBNZ4AGAACANzbUchoRWxFx5i4AAADYZAZoAAAAGIHsQx9lH/rGnQAAALCJDNAAAAAwItmH3sk+9IO7AQAAYJMYoAEAAGCEsg/dnuU+0YcGAABgUxigAQAAYMSGWlbZh75wTwAAAIydARoAAABGLvvQBxHxTh8aAACAMTNAAwAAwIYYarnNPvS+PjQAAABjZIAGAACADTPUchkRC31oAAAAxsYADQAAABson+Ve5RCtDw0AAMAoGKABAABggw213Gcfejci7twlAAAAb8kADQAAABMw1HI91NK+hj70LDcAAABvxQANAAAAEzLUch4RW9mHBgAAgFdlgAYAAICJea8PvR0RV+4XAACA12KABgAAgInKPvRe9qEf3DMAAADrZoAGAACAics+dHuW+1gfGgAAgHUyQAMAAMBMDLWcZh/6zJ0DAACwDgZoAAAAmJHsQx9lH/rG3QMAANCTARoAAABmKPvQOxGxrw8NAABALwZoAAAAmLGhlsvsQ5/oQwMAAPBSBmgAAACgDdGr7ENfOA0AAACeywANAAAAPMo+9EFE7OpDAwAA8BwGaAAAAOAvhlqusw99qA8NAADAUxigAQAAgH801HIeEQt9aAAAAD6XARoAAAD4oHyWe5VD9JWTAgAA4GMM0AAAAMAnDbXcD7XsZR/6zokBAADwTwzQAAAAwGfLPvQi+9Ce5QYAAOAvDNAAAADAk2Ufeiv70AAAAPDIAA0AAAA8y3t96O2IuHGKAAAAGKABAACAF8k+9E72oR+cJgAAwHwZoAEAAIAusg/dnuU+1ocGAACYJwM0AAAA0NVQy2n2oS+cLAAAwLwYoAEAAIDusg99EBHv9KEBAADmwwANAAAArM1Qy232off1oQEAAKbPAA0AAACs3VDLZfahT/ShAQAApssADQAAALyaoZZVRCz0oQEAAKbJAA0AAAC8qqGW++xD7+pDAwAATIsBGgAAAHgTQy3X2Yc+1IcGAACYBgM0AAAA8KaGWs7zWe4TNwEAALDZDNAAAADAmxtq+S370NsRceVGAAAANpMBGgAAABiN7EPvZR/6zs0AAABsFgM0AAAAMDrZh27Pch9HxO9uCAAAYDMYoAEAAIDRGmo5jYitiDhzSwAAAONngAYAAABGLfvQR9mHvnFbAAAA42WABgAAADZC9qF3sg/94NYAAADGxwANAAAAbJTsQ7dnuU/0oQEAAMbFAA0AAABspKGWVfahL9wgAADAOBigAQAAgI2VfeiDiHinDw0AAPD2DNAAAADAxhtquc0+9L4+NAAAwNsxQAMAAACTMdRyGRELfWgAAIC3YYAGAAAAJiWf5V7lEK0PDQAA8IoM0AAAAMAkDbXcZx96NyLu3DIAAMD6GaABAACASRtquR5qaV9DH3qWGwAAYL0M0AAAAMAsDLWcR8RW9qEBAABYAwM0AAAAMBvv9aG3I+LKzQMAAPRlgAYAAABmJ/vQe9mHfvBfAAAAQB8GaAAAAGC2sg/dnuU+1ocGAAB4OQM0AAAAMHtDLafZhz6b+1kAAAC8hAEaAAAA4M8+9FH2oW+cCQAAwNMZoAEAAADek33onYjY14cGAAB4GgM0AAAAwD8YarnMPvSJPjQAAMDnMUADAAAAfMRQyyr70BfOCQAA4OMM0AAAAACfkH3og4jY1YcGAAD4MAM0AAAAwGcaarnOPvShPjQAAMDfGaABAAAAnmio5TwiFvrQAAAAf2WABgAAAHiGfJZ7lUP0lTMEAAAwQAMAAAC8yFDL/VDLXvah75wmAAAwZwZoAAAAgA6yD73IPrRnuQEAgFkyQAMAAAB0lH3orexDAwAAzIoBGgAAAKCz9/rQ2xFx43wBAIC5MEADAAAArEn2oXeyD/3gnAEAgKkzQAMAAAD8H3t3eNzGjf8NHMj4vfSvwLoKpKvAurkCrFRgXQXRVWBl5t5HV0GUCqIUcBO5gsgVRKrgkSrAM3DAeM1IFklhSSz285nhOHFieQmQy+V+8fthZGV/6NyW+9/2hwYAAHomgAYAAADYkv/8758XZX/on4w5AADQIwE0AAAAwBaV/aFPQwh/tz80AADQGwE0AAAAwA7853//vCn7Q39rf2gAAKAXAmgAAACAHfrP//55VfaH/t7+0AAAwNQJoAEAAAAa8J///fM8hHAUQrg2HwAAwFTFlJLJAwAAAAAAAODFVEADAAAAAAAAUIUAGgAAAAAAAIAqBNAAAAAAAAAAVCGABgAAAAAAAKAKATQAAAAAAAAAVQigAQAAAAAAAKhCAA0AAAAAAABAFQJoAAAAAAAAAKoQQAMAAAAAAABQhQAaAAAAAAAAgCoE0AAAAAAAAABUIYAGAAAAAAAAoAoBNAAAAAAAAABVCKABAAAAAAAAqEIADQAAAAAAAEAVAmgAAAAAAAAAqhBAAwAAAAAAAFCFABoAAAAAAACAKgTQAAAAAAAAAFQhgAYAAAAAAACgCgE0AAAAAAAAAFUIoAEAAAAAAACoQgANAAAAAAAAQBUCaAAAAAAAAACqEEADAAAAAAAAUIUAGgAAAAAAAIAqBNAAAAAAAAAAVCGABgAAAAAAAKAKATQAAAAAAAAAVQigAQAAAAAAAKhCAA0AAAAAAABAFQJoAAAAAAAAAKoQQAMAAAAAAABQhQAaAAAAAAAAgCoE0AAAAAAAAABUIYAGAAAAAAAAoAoBNAAAAAAAAABVCKABAAAAAAAAqEIADQAAAAAAAEAVAmgAAAAAAAAAqhBAAwAAAAAAAFCFABoAAAAAAACAKgTQAAAAAAAAAFQhgAYAAAAAAACgCgE0AAAAAAAAAFUIoAEAAAAAAACoQgANAAAAAAAAQBUCaAAAAAAAAACqEEADAAAAAAAAUIUAGgAAAAAAAIAqBNAAAAAAAAAAVCGABgAAAAAAAKAKATQAAAAAAAAAVQigAQAAAAAAAKhCAA0AAAAAAABAFQJoAAAAAAAAAKoQQAMAAAAAAABQhQAaAAAAAAAAgCoE0AAAAAAAAABUIYAGAAAAAAAAoAoBNAAAAAAAAABVCKABAAAAAAAAqEIADQAAAAAAAEAVAmgAAAAAAAAAqhBAAwAAAAAAAFCFABoAAAAAAACAKgTQAAAAAAAAAFQhgAYAAAAAAACgCgE0AAAAAAAAAFUIoAEAAAAAAACoQgANAAAAAAAAQBUCaAAAAAAAAACqEEADAAAAAAAAUIUAGgAAAAAAAIAqBNAAAAAAAAAAVCGABgAAAAAAAKAKATQAAAAAAAAAVQigAQAAAAAAAKhCAA0AAAAAAABAFQJoAAAAAAAAAKoQQAMAAAAAAABQhQAaAAAAAAAAgCoE0AAAAAAAAABUIYAGAAAAAAAAoAoBNAAAAAAAAABVCKABAAAAAAAAqEIADQAAAAAAAEAVAmgAAAAAAAAAqhBAAwAAAAAAAFCFABoAAAAAAACAKgTQAAAAAAAAAFQhgAYAAAAAAACgCgE0AAAAAAAAAFUIoAEAAAAAAACoQgANAAAAAAAAQBUCaAAAAAAAAACqEEADAAAAAAAAUIUAGgAAAAAAAIAqBNAAAAAAAAAAVCGABgAAAAAAAKAKATQAAAAAAAAAVQigAQAAAAAAAKhCAA0AAAAAAABAFQJoAAAAAAAAAKoQQAMAAAAAAABQhQAaAAAAAAAAgCoE0AAAAAAAAABUIYAGAAAAAAAAoAoBNAAAAAAAAABVCKABAAAAAAAAqEIADQAAAAAAAEAVAmgAAAAAAAAAqhBAAwAAAAAAAFCFABoAAAAAAACAKgTQAAAAAAAAAFQhgAYAAAAAAACgCgE0AAAAAAAAAFUIoAEAAAAAAACoQgANAAAAAAAAQBUCaAAAAAAAAACqEEADAAAAAAAAUIUAGgAAAAAAAIAqBNAAAAAAAAAAVCGABgAAAAAAAKAKATQAAAAAAAAAVQigAQAAAAAAAKhCAA0AAAAAAABAFQJoAAAAAAAAAKoQQAMAAAAAAABQhQAaAAAAAAAAgCoE0AAAAAAAAABUIYAGAAAAAAAAoAoBNAAAAAAAAABVCKABAAAAAAAAqOKVYQSgBTHG8xDCbXncpJTuTQwAAAAAAExLTCmZMthAjPEohLBfYexuU0q3LcxBjPEghHBQ42ellK5r/BzmI8b42AfSh2EoHUK4n/Nrq9Z7dApj+MQ5dvj8P70eHvmjzZxTAQAAAADmSAANG4ox5gDnTYXx+z6ldN7CPJQK1Pc1flZKKdb4OczHEwH0U+6GoXQI4bqE0zc9D1it92gr788SqB8NHvuVzqsLD+U1EsprJMzltQIAAAAAsCtacAMwRa/LYxFWfgplY4wfUkrHZrRNMcYcMJ+EEI7L4/XIB7o3eI0sv1ZCWchwM3yongYAAAAAeBkBNAAwqhhjDp1PQwhvGxvpxUKGP48rxvhQqqSvUkqXuz08AAAAAIDpEUADAKOIMebQ+XwLlc417ZVAOldrC6ABAAAAANYkgAYAqooxHpfwdkrB87L7tg4HAAAAAGAaBNAAQBVlj+fLBlttb+JmeocMAAAAALB7AmgA4MVijEd53+SJVz0P3bZzKAAAAAAA0yGABgBepITP12X/5F4IoAEAAAAANvCNQQMANtVp+BwE0AAAAAAAmxFAAwAbiTEedBo+h5SSABoAAAAAYAMCaABgU1c9hs8hhI8NHAMAAAAAwCQJoAGAtcUYz0MIh52O3H0DxwAAAAAAMEkCaABgLaX19vuOR+2mgWMAAAAAAJgkATQAsK7zzkdMBTQAAAAAwIYE0ADAykr187vOR+y6gWMAAAAAAJikV6YNAFjDyZYH60P59bY8HnMUQtgf/P6bLR8jAAAAAACFABoApuOygerc05F//i8hhKv8PFNKTwXOK4sxHpf/dxFSH5RH/ve9x35OSkkFNAAAAADAhgTQADARJZB9cSi7qdJ++3CkH/99COEipVR1/+VBmPxoqFwC6v0SSC9XUgMAAAAAsCYBNACwquMRRupjrqpOKd3sYhYGAfXVLv5+AAAAAIDeCKABgFUdVR6pHD4f1656BgAAAABgd74x9gDAimoH0KfCZwAAAACAvgigAYBV1Qygf9pV220AAAAAAMYjgAYAVrVXcaTOjToAAAAAQH8E0ADAs2KMBxVH6WNK6daoAwAAAAD055U5BaYsxrg/aAt8PHgq+ff2V3xq1+XXvBdtbgl8O+VwLMa4eO6L8dhfo3XyYgwWbsrv3c+pXfLgdbUYy4PyeEx+/eTXy3XnoWrNAPqq4s/qSgn6DwavvVXfv4vz2G153Nhf+8/38kk5H15M4Tz2yPnna59nt0tzrq09AAAAADsngAYmIcZ4PLgJf1x+Pax07G+WfyPGmH/5UALY6xIuNhfmLIUrR5XG5O0Tf1f+5WER0i9C16kHXYOw53gwjuu0mv7z9RNj/FhCrsuRjvV4aaHFRlJKu25/LSQrBnN6/Ni5aA2Pncfuls5hWx/3EqifbvjHbzd9L5VxzX/vu8FvX6/z2nvB+y2P9fUK/9/i7xmex/Pj9Rp/1xfzHmN8KAs8rlJKFnoAAAAAsBMCaKA5pYL3qHKouok35fFd+OO4fik39UcJF9cRYzwtgcWjYfGI9gbjkr0PXwZdZ1OoAi6vsZPyqPn6yj/rxxjjeRmL2gHQ8WLMX2jXAfSsK3NjjCeD11/NfbWXvS6Pt+Hz+zSfvy63+D49eMFr9qEc78rKufH8iRB33Sr+Td9vJ6tUrY90Ht8rofu7xXw3sOAEAAAAgJmxBzTQjHwzPsaYQ5HfcohXbqLvKnx+zNsSLt6W4GDrBmP04w7C569ZhFw12zRXlUPnGOPl4DX2fsTXVx6Pn0sQzV/Ncv/nwfv353J+GzN8fszr8rr/PcZ4VSp8W7bS+OQK4vxeizHel3PjUxXEq27L8FKHT+2Z/sixjnke/zTf5TOr9bkGAAAAoCMCaKAl92u2Ht2V14Mgeis39Utocf1MuNKCpoLFHAKVsGcROr/b8vjl8Odii3/fJHS+V/Zf5IrnwcKRVt6/Ofj8tQTRLS8cefIcuwhzy3nn/QqB9ap74dfwxXFvcKw1vS5z7VwEAAAAwFYIoIGWTC2UWtzUPxvzLyntom9fuD/sVrQSLObQKgdrudKzhD27DP2+21XFPLtVQserUvHc6sKRHETfjH0ee4GnKolPdxTmrupkcKxnjRxrPhftfAsJAAAAAPongAaakVK6mehs/DDWTf1SmXjdaMCy7K6BY8gVz/l19GtjLcovchjZwHGwJWXhyE1jr8On7C3OYw2+Tr8IoJeqydc9L25zEc/b0vY/n79/aOgc/k4IDQAAAMDYBNBAaz5OdEbejVRBeDWR8Dk0UsH+urF9wxfyHGp/OxMlfL6eyJYCQ7lF/XVjIfSnttmlnf5149Xky35rtHPFWJ9XAAAAAPCJABpozZT3hv2h5p7QZb/QFsPUp0y1gn1b3qmC7t8gfJ7KwpFlh42F0AflXPh7jTC3zA8hnLe89zcAAAAA0yaABloz9RCzSmvTEv5MrULtvoFjaJ29oDs2sZb5X3PYUMX+Ydk7uRaLQP6wV+vzCgAAAACWCaCB1kw9gH5dqvVe6nSCIZYK6OcJoPt22UH4vNBrm2ZVv5+9qdm1AwAAAAAWBNBAa6bcgnuhRsg4xaBSBfTzDrXh7lMJa1vc7/clemzTLID+kkUxAAAAAFQngAaaklLqoYo2V0GfbPqHS0A5pb2fF1RAr8YetJ0p79kanQ9as9fh87IA5Ev2pgcAAACgOgE00KKPHczKxgF0CGGSLVFTSiqgV6PlbX/OOmq9vexdZ1XQFoD81Us+rwAAAADgL14ZEti5g4b2YGwlZLhdsQL4YVB1e/tI++7rpX8fjvNReb5jVRq/5IZ+7YDkrozFzTNVyvtLf/divPI4vX7m7+hh0cC2aAHckVI9uo29kh8eef9uq1vCuVbNW3e39Jm2ynl4Uydl/3IAAAAAqEIADbv3rjz4LIcsb8u/PQyC0/sSpN5v2Kp7OZBehEfHJUCquX/rXozxaMPjrBVQ5rE7SymtEyxcPfUfylgtgvuD8s/7ZdxUP69OAN2Xk5Gqn+9KKHidUvrLuWuoVCgflWMZ43hO8vu/ky4Hre7T/ctiodBT8z3i55WuDAAAAABUJYAGWnQ5uBE/auBRfn4OXa/Kvs2XFcObow33Ra4VUJ48F1yto4xVtZ/XqOWqw6nux8321G5fnF+Dp+u8d1NKiw4QV4OK7PcVj2mvgyrZRaB/0cCxLHwsx3O1ymfd0udVrkj/sdJx5AVTB+V1BAAAAAAvZg9ooDn5JngOX7ZdbZdSuqocJu2y0vWuZvjcsQ8hhO9DCP9IKcWUUg5hjgePvIjgb6U6sZZWKzDZzNuK4/ZTXrjykvduPm+mlHLL7L+XLgi1TLVKNgfP/yrv7fNGqrg/lHNOnuvLTY6pdLb4d8Vj0pkBAAAAgGoE0AADJfj5qdKY7DKw2aTyei7y/P4rhPB/JWg+/1rgVxZEnFQOoelA5f37P6SUTmsFpKX9/3HFEHpqAfQweG6lcjvPxbflvPPiBUIppYvyPGvQhhsAAACAagTQAH/15D7IEyKA/tKHQeh8umHV4dnYB8nk1ArtcjB5WvvJlxC6Vsvp12Wv6da1GDyHsoDloHTaqKmlluIAAAAA8IkAGmBJxYBAS9PdeijVzn8rFYcbtbpdKPuj1qo2pA9HlZ7F5Vj775Z23LWqoFs+p7UaPGf/zl0URmr/XWuxkc8rAAAAAKoRQAM87mOFcXm9w7Hd3+HfvWsPZV/ng1LtXDPYGyUkZLJqhXZjB6a1fn6LbZoX7/ejBoPnT0qr7LF+dq29/gXQAAAAAFTzylACPGqMSrVtqlWZOTV54cDxSJWGsOywwog8lFbZY8oh5Xcdzl7ucHDm/Q4AAAAAbVEBDdCnoxjjHKug74VRTMw29muv9Xe0UgGd93T/R+lw4P0OAAAAAI0RQAP0aS+EMFrbV6Ca0du6j7W/9A48lH2ejyu2ngYAAAAAKhNAA7SnVlj0LsZ4HWOcaztuGE2MsVY1sH3FV/NL2de9yX2eAQAAAIDPBNAA7akZSL0JIfwWY7yJMZ4Jo4GJutFuGwAAAACm4ZV5AmjOGBWRhyGEH8IflZu5jW1uX3uVf+2oPS8AAF4Cv78AACAASURBVAAAALBjAmiA9tyMfER5f+i35ZED6bsSSF8LpAEAAAAAgJfQghugMSmlHEDfbfGoXuf9okMIP4YQfi/tui+06wYAAAAAANalAhp276cQwmUj83Bagkh2L7fH/m5HR3FYHt+Vdt35WK5SSldeFwAAAAAAwNcIoGH3blNK1y0cSIzxuIHDeFaM8SCEcFQe++XX2nZd/XuxwwB6aK8sSnhXWnXnxRKX2nQDAAAAAACPEUADk1DaQecK7ZPSMrprOeCNMf63kRB6IY/7+/yIMebK/XNBNAAAAAAAMGQPaKBpuSo7xpgrxH8rYWz34fPAeQjhYzNH86VcFZ33ij5r6aAAAAAAAIDdEkADTYox7scY857Dv4YQ3sxxllJK9yGE44ZD6Nye+4c8T3m+GjgeAAAAAABgxwTQQHNKmJmrnt/OfXYGIfSHBg7nKW/LfAEAAAAAADMngAaaMgifD83MH3IInVLKIfS/QggPLRzTIw5jjOfNHRUAAAAAALBVAmigNVfC58ellC5DCAchhO9DCHcNHuL7GONBA8cBAAAAAADsiAAaaEaM8XSu+z2vqlRDn6eUctD7bQjhl8YO8ayBYwAAAAAAAHZEAA20RAvnNaSUrlJKJyGE/yvtuX9qoEX3yY7/fgAAAAAAYIcE0EATYow5uHxtNtZXqqIvU0qnKaW8h/bfQwj/LtXR2w6kX8cYj7b8dwIAAAAAAI14ZSKARqicrSSldBNCyI+L8Ee4nwPh48Fjb+RDOCh/PwAAAAAAMDMqoIFWCKBHkgPplNJFbtddKqS/HbldtwpovkqVPAAAAABAv1RAAztXwqiaVbkPpQL3+gU/47TXluB57+gQwlWMMYfRZ+UxdlU0DO0bDQAAAACAPgmggRbUqobMwfN5rvZ96Q+KMR73vid13js6j1eMMY/XZQjhbaUffVzp59CvA3MLAAAAANAnLbiBFtQKo05rhM9zk4Po3J47hPDL3MeCremhBXetfc5VgwMAAAAAXRFAAy2oEUDfldbSbO7M2PEVtQLX0MOe76WDQA2jh/Gl3T4AAAAAwFYIoIEW1Aighc8vlFK6DSF8nPSTYDQVA9fsdWlzz3bakdcKuWsuQgAAAAAAOiWABnpRMxybM+PI19xVHJ3zDka6xnjkMH7sELpWAO38AAAAAAA8SwANAKzqtuJIvYkxTr0Vd63xGHscTiv9HBXQjanYSaDmexsAAACAmRNAAwCruq48UpcxxtH3QB5RrUB2tP3XS0B5WOnHCSnbU+v9Y24BAAAAqEYADQCsqnYF7F4OtWOMowWwI6s1HrkNd/WW5DHG/RDCRa2fl1JSAd2eWtXtAAAAAFDNK0MJdGLsPVTnYsrVqIyvdgV0KCH0D6Ud90VK6WobT6RUXueA9rj8elQeeymluOKPqTke72OMtymlyxo/rITPlxWrnz9U+jlUUrm6fYz3NgAAAAAzJYAGWpCr6t688Diq7KFaQpuzXQexJVjIlW05jLtOKd1v6e/cq/CjBBmdyq/DGOMvIYS3IzzDN2Vf6IfF6z63BU4prf16WtoXd/HPR4Og+auv83weWOU9l1K6jTF+rBgC/liC8fOXvOfLz6gZPocyJ2w2Hwf5tVJz7Moc15wTLbgBAAAAqEYADbSgRri6l1vYppQ2amNbbuaflkeNEPalcmj2rjzy8d2VQO5m8agZSg8CK3jO1UgB9MLe0mt/8ft3XwnJXrqAZdnRGgsprioHvd/l81CMMbfOvlwnuCxV5CeLsatMAL2538vCipvFworyWPs8PlgkdVbxs+qhdkAOAAAAwLwJoIEW1NpX9H0Jqy5WualfqiRPSthbM0Cq4XjpZ7wehnLhcyh9W8bvfvDr/Sp7tZYgYzEGJxXDDPvEdiy3iC7h6LYXarwuj23YX+PvyAs33lc+pr3yM98P3udPBeIH5VE7hB/6IKB8sb1Flf/wB5XPrI+Lc/cz58/jkeZZ1woAAAAAqhJAAy2oGVguQpsPT9xUX+z32lrgvGyVPa0XgdxfAolB1ejCIuDYxnMXQPfvYoTQtSUrtzcubbjHaksevvY+36KLHf7dczA8J4/ZXeApqtsBAAAAqEoADexcCXDuKlc3/qXSbCpKZXLtSs9tBe5auc7DReUWwK1ZZQHI0MWOgsNt+JhSElD2zfwCAAAAUNU3hhNohBagnx21ciAbEGTMQGlxf9rxM10rgE4p5fPXT+Mdzk6ddfq8+MNP6+5DDQAAAADPEUADrRBcfra8//OUmMeZKFWxvYau61ZAhxLUPoxwLLv0SwnX6deluQUAAACgNgE00IQSZt2ZjU+mWgF9p1Xv7JyV/cV7s3YL/A6rwu86r3InhA8WGAAAAAAwBgE00JJzs/HJJtWXLTB/M1NC1+MeQ+gY49oLQcoCjH+Pc0RblSu5T7Rm7tqDBQYAAAAAjEUADTQjpXSpCvqTwwaOYV0fyvwxMx2H0Pub/KGU0sXEW5PnYPI4pXTTwLEwnvOU0q3xBQAAAGAMAmigNbOuyIoxTnH/50/Vkg0cBzsyCKF/6WgONm6Fn1I6nWgltPB5Hn4qCyUAAAAAYBQCaKApZT/KVoKbDzuoyJ7a/s+LwEqr3pnLr4GU0kl5/z50MBobVUAvlIDv2wmNRT7fHQifu/dTWSABAAAAAKMRQAPNaaCFbQ6d/5VSyhWd264Sm1IAnVsuHwmsGCrv34OJt6EOpaL7Rcqe0AeNV4bngPzf+XxnIUn3/it8BgAAAGAbBNBAk8pN8n9t+dgWwfPBYD/j6y0fw1UJq1qvmvw+pXRkD1EeU6qh83v4bx0E0S8yqAz/R6kybkU+x3xfqp61Y+5b/mz7R0rpbO4DAQAAAMB2CKCBZpUQ+O+l0nYsDyUg+8dS8PxJqe7dWhvuXDGZw6qU0n4JrL5vKLTKY/XfHCqmlM4bOB4alxcolCD6/0pr7jHfyzXclfNBPtaqYV3eXqB0Vfh7+Tt2tcjkrjy/fL47V/XctcUig6OyvQUAAAAAbMUrwwwbq9V2uKUK0tvGKvQWAfBRjDGHWPnxpsKPvSuVzVelRe5zLmu0411XCQz+DA1ijMelRfdRaetbYyye81Cqsq+Xw/kR1Hjtjd0OfNftxpt7j66ihJy5yvYixpgXV5yU91R+vN7BIT2UubwpY/rpn7cRxpZz2qc2yDHGk8FYjDkOHwbnvG2/hu8rvWan3G3h23LePi7n7rFf87+U8/aVBQYAAAAA7EJMKRl4YDJijAeDwCb/8+Ezx/6xBCDXg5Cpm7bRZTwOSrixP/h1f4WxGborAc/9IJjraqxoUwmkjwav3cVij02DurtBWHk7+OdPizlarQQdvJcX57aDDcZgEfT+GayrfN1cjDF3enj/0p+TUorLvxdjXH69L/49rLm4aPkz7lroDAAAAMCuCaCBLgxCrFuh6eOMET0onQDud1DJ24RBUL2Viu05GzOAXtfg/G3eAQAAAGieABoAAJa0FEADAAAAwJR8Y7YAAAAAAAAAqEEADQAAAAAAAEAVAmgAAAAAAAAAqhBAAwAAAAAAAFCFABoAAAAAAACAKgTQAAAAAAAAAFQhgAYAAAAAAACgCgE0AAAAAAAAAFUIoAEAAAAAAACoQgANAAAAAAAAQBUCaAAAAAAAAACqEEADAAAAAAAAUIUAGgAAAAAAAIAqBNAAAAAAAAAAVCGABgAAAAAAAKAKATQAAAAAAAAAVQigAQAAAAAAAKhCAA0AAAAAAABAFQJoAAAAAAAAAKoQQAMAAAAAAABQhQAaAAAAAAAAgCoE0AAAAAAAAABUIYAGAAAAAAAAoIpXhhEAAKr7EEK4N6wAAAAAzI0AGgAANvOxhMzXIYTb8rhJKQmeAQAAAJgtATQAADztbhEsD8PmlNKtMQMAAACAv4opJcMCAAADMcZ9lcwAAAAAsD4BNAAAAAAAAABVfGMYAQAAAAAAAKhBAA0AAAAAAABAFQJoAAAAAAAAAKoQQAMAAAAAAABQhQAaAAAAAAAAgCoE0AAAAAAAAABUIYAGAAAAAAAAoAoBNAAAAAAAAABVCKABAAAAAAAAqEIADQAAAAAAAEAVAmgAAAAAAAAAqhBAAwAAAAAAAFCFABoAAAAAAACAKgTQAAAAAAAAAFQhgAYAAAAAAACgCgE0AAAAAAAAAFUIoAEAAAAAAACoQgANAAAAAAAAQBUCaAAAAAAAAACqEEADAAAAAAAAUMUrwwgAAAC0JsZ4EELIj/0QwlE5vOE/L+R/31vx8D888ns3IYT78s/35d+z25TSrRcGAADAemJKyZABAAAAOxFjPCpBc/71uITMhw3NxsMgpB7+KqAGAAB4hAAaAAAA2JoY43EJmvPjTQcjn6uqb8vjOofTKaX7Ff4cAABAlwTQAAAAwGhKK+2T8ughcF7FXamSzo/rlNJ1+4cMAABQhwAaAAAAqGoQOp821k57lz6WCunrEkqrkgYAALokgAYAAACqiDEuQue3RvRZi0D6MqV00/ixAgAArEwADQAAAGwsxrhfqp3PQwivjeTaPqSUjid2zAAAAE96ZWgAAACATcQYz0rwvGcAN6b6GQAA6IoAGgAAAFhLabV9oeK5CntBAwAAXRFAAwAAACuJMR7kPYtDCG+MWDUqoAEAgK58YzoBAACA55R22zfC5+pUQAMAAF2JKSUzCgAAADwqxrgfQrgSPI8jpRR7fF4AAMB8acENAAAAPCrGeBRCuA4h7BmhUTx0+JwAAICZ04IbAAAA+IsY42kI4Tfh86js/wwAAHRHAA0AAAB8oYTPPxqV0d12/vwAAIAZEkADAAAAfxI+b5UAGgAA6I49oGFD5abMgfGDtVymlNxkAwBolPB561wbAwAA3RFAw+byjZk3xg/Wcu0mGwBAm4TPO+HaGAAA6I4W3AAAADBzMcZj4fNO3MzwOQMAAJ0TQAMAAMCMxRjz1kJXXgPbl1K6n9tzBgAA+ieABgAAgHnL4fPe3AdhBz7M7hkDAACzIIAGAACAmYoxnocQDs3/Tqh+BgAAuiSABgAAgBkq+z6/N/c7Y/9nAACgSwJoAAAAmKcL875TtzN+7gAAQMcE0AAAADAzWm83QQANAAB0SQANAAAAMxJj3A8hnJnznRNAAwAAXRJAAwAAwLzk6uc9c75bKSUBNAAA0CUBNAAAAMxEjPEghPCd+d65jzN//gAAQMcE0AAAADAfWm+34X7uAwAAAPRLAA0AAAAzUPZ+PjXXTbie+wAAAAD9EkADAADAPJza+7kZKqABAIBuCaABAABgHrTfbsfN3AcAAADolwAaAAAAOhdjPAohvDbPzVABDQAAdEsADQAAAP1T/dyQlJIKaAAAoFsCaAAAAOjfiTluxt3cBwAAAOibABoAAAA6FmPM4fOeOW7G7dwHAAAA6JsAGgAAAPp2bH6bov02AADQNQE0AAAA9E377bbcz30AAACAvgmgAQAAoFMxxoMQwmvz25TruQ8AAADQNwE0AAAA9Ev77faogAYAALomgAYAAIB+CaAbk1KyBzQAANC1V6YXAAAAunVkasNDCGEY+t6Wx8JBeQzthxAORzoWAACArgmgAQAAoEMxxrFC1JbdlT2W8+M2pVRlv+UY46KS/OCRxzp7bKt+BgAAuieABgAAgD7Npfo5VxVfhRAuxmpv/VyQHWM8KlXTx4OA+s0j/+vtI78HAADQFQE0AAAA9GkOAfR/QwjnKaX7XR7EIPj+IqguwfRBmYtjATQAADAHAmgAAADo0/K+xj3JVc8ntVpsj6UE0zelQhsAAGAWBNAAAADQp14roD/mauJdVz0DAADwuG+MCwAAAHSpxwD6QfgMAADQNgE0AAAA9Gmvw2d1InwGAABomwAaAAAAOhNj7LH6+afW93wGAABAAA0AAAA92u/wOZ03cAwAAAA8QwANAAAA/Tno7Bnl6ufbBo4DAACAZwigAQAAoD+9BdBXDRwDAAAAKxBAAwAAAE1LKQmgAQAAJkIADQAAAP3paQ/oDw0cAwAAACsSQAMAAEB/jjp6RtcNHAMAAAArEkADAAAALbsxOwAAANMhgAYAAABadm92AAAApkMADQAAALRMBTQAAMCECKABAACAZqWUVEADAABMiAAaAAAAAAAAgCoE0AAAAECr7swMAADAtLwyX7Ax+5Ct783UDvgZH0MI2gGux3gBALCOW6MFAAAwLQJo2FBK6czYrSfGmKZ0vCs4SyldN3+UAAAAAAAAW6IFNwAAAAAAAABVCKABAAAAAAAAqEIADQAAAAAAAEAVAmgAAAAAAAAAqhBAAwAAAAAAAFCFABoAAAAAAACAKgTQAAAAAAAAAFQhgAYAAAAAAACgCgE0AAAAAAAAAFUIoAEAAAAAAACoQgANAAAAAAAAQBUCaAAAAAAAAACqEEADAAAAAAAAUIUAGgAAAAAAAIAqBNAAAAAAAAAAVCGABgAAAAAAAKAKATQAAAAAAAAAVQigAQAAAAAAAKhCAA0AAAAAAABAFQJoAAAAAAAAAKoQQAMAAAAAAABQhQAaAAAAAAAAgCpeGUYA5ijGeBRC2B889eNnhmHx32/L4yk3IYT78t/uU0o3XmDMXYzxJL+HUkpncx+L3sUY87nyxFyvJ8Z4EEI4WPpDz30uZcPPsuHnz9dcL/23m5TSKn8OoEkbXNcP///lc+KyL86tKaXn/n+YFdd+rCrGuF/Ov6Gcg4+e+KOLc/Rj59vFOfk2pfS1+zJs0dJ3GXML/CmmlIwGsBUxxt5OOP9wA6JNgy82B0uP/PuHOzroj4uL6fK4KQG11xBdijGe5ptR5SbwXvjjpm002/0pCwwWj73yBP8+5wU4SzfYFkHI8k23XX0efc3HQdByPfzV59X0xBjznL3p4Kl8SCmtsiCDDg3C5cVrYPFrvrZ/vcNn/FCu54PzJXPzxLWf+yMzNwghl8/bR4PXSW0fy7k4P64VAIzjK5/FY15nfhjcOzO3MFECaGBrBNCMoVwILz/G+nIzlrtyYX29+PJkxSdT9MTNqKFZh5I9KdUup1+Z664/Iwc3YR77dWqfQetYBC63w88tFdRtEkAzJSW4GF7THzS6UGdVw+v723KudA3EZJVrn7O5XvvxWePn64dy3r3KD9eo6ynv8wNzC9QigAa2RgDNS5WKsuNyIXzcyU3Vp9wtVnqWi2uBNE0qNyBOy+O5SiTnzQkrc31Sbj4+N9f/SilddvB8D8rnzbCzxi4r7lr1MPjMEko3QgBNy8pCpuPBtX3Pi3eGPgzPl86VtKx8/z5d8drv3ymlCxPal3I9fDwIJKd2XfFLCOEypXTVwLE05ZFiDnMLVCeABrZGAM0mykXxoqJyylUQL3U3CKNdYK8hxng+kUO9nVJgV6qd8w2pt2v8sVFDyQnN9f2UbtCVkOBszbn+PqU0ifkYtMs+Hmzb0PMCp235OPjcmuX1UgPnpFUWBk1Bvgaa9IKWoamcG2tbCpydYz/7OAijXeOvaULXfpN67w863bxb44+Neu1Xtvc5WOF/3bqezuuDc/XRcCulDuRrifOpL5Dd1NL3nd4Wfs16bqF1AmhgawTQrGqFNr5Y7bmyCZ17HlJK+w0cx5PWrIJ4zNg3pibzOdP6fthlrvM5+LzFud7UUsvAuVXd7dovc2uZ1+G1LxW0fv6vZfA5cuyafi2/6IC0Otd+9VS49vtvSulsxONruavH36b6fp3h4qBZhJWD7oGLxxyKOQTR0CABNLA1Ami+ZoU9pXjcQ7mhf2Ffuce5MfVyJbQ7r/D+HPvG1JQ+Z5rcD3vQUv3shXPdRMvcjqs4pm4WYbQAmkc0v9jspUqV4smaXTN4XK6OvrDX5dNc+71cCarOWr/2azyAnkz78UGHubl3o8jbIZz1dA9l8L1n7t0D82fnqftj0AYBNLA1AmiWVaim5EsfSxBtxefAxM49TZ1XBgtD1mm/9zVj35gy1xsaLDKYxFw/ZqYr/aeu60VUAmge0eV+1haSboXuR4+Y2Hn225bmb2rXfo0H0L+klE4aOI6/0I3iWZPZNmjZYH/uEwttHzXZuYWeCKCBrRFAs1CxmpLHPZRqiQvVEm5MbaKsnj4f4SaPAPqzJr4Qb7jH3yq2UuVXtmwQOPfhQwlXullEJYDmEV0F0KXa+cz5d6vuynX+pet8136bGCF4/tOY3ZwaD6Cb6mRVFgUtrvGdn5+Xr0FPpnBOHVSwz73KeVUfy9za0gJ25BsDD8C25C+7McZ8Y/n38oVX+DyOPK7vQwi3McbzsuqZaTja5VHmMLLc3Pl1pBs8O31+jdnp+3JprqvfgBzr/F4+R85ijFflpvPPIYTv3IDpQj7n/BhjvC2hFtCgfF1Zri/zzdwfnX+3LneN+qFc51+WMJFp2OlcDa79fh/p2m/WyqLIncnBZIzxopybfyvnCefn1eRr0JsS7jbnkbl9b25Xdtjy3MIcCKABGN0jwTPbMQyi3cyfhp18MdpC8Lxg0clnvc91GOmm+Gm5oWZv0X69HgTRTbazhBeYbKv5RfCcryvL9aXtc3Zrr3yv+l0QPRk7maMtX/vNOeTZ+jXLI8Hkd87NG8vjdt3Ka9jcVrVX5tY9MdgBATQAoyk3qi4Ezzu3V27m35R2u7Rrq1Wx27whNfg73SD9w1bHYRdzPdJztPXFfOSbbD/n163zBh2ZZMvkpeDZYrL2LILoC52PmrbVYKssAt/2td+cX39b+Z4tmBzV3i5D6PKeNbfjWNwTE0LDlgmgARhFubC7LRfNtCG3H/rVzammbSsE3kUYuSBI+sNWbiYMOlDsYq7HYP+u+XlTgpWd75sJc5O7EJQb4YLnafhusQXP3AeiUVt5Dy11H9v2td+cv2O+Hiu4HGxBcyOYHN1WQ+hStLGY29/N7eiE0LBlAmgAqhqstP7RjapmfVf2wVEN3aAxFwc0EkZa/FCM+R5sZOuD6s8vpSSAnq/3pZOHPdyYsklUQA+u5392I3xy9sr58ta1fntmcO0398/oqvObg7IY41WZU3s6b88ihB7ze/lJmdv/Z2637sL3CdgeATQA1eSVm2Vvux6q7Hr3ulRDq5BoT/UvQ2VldSv7sPuy91n1mxqDPTp73vrgQwPHwG7km3O/lesNmKLm94B2Pd+N1zofNal6J6DBtd+Nba927sWVlYMW2/dlUf/b6Q/LJO3V3vqnLBI5L51Ffja3OzP6AgPgMwE0AC9WvvRel5Wbqp6n5X3ZX9PFdzuq3Zga3JC6dUOqSVXD+BIaLFqltmCsxQaqoPkhL6rx2QX1DKqeXc/3ReejtlQNoJeu/Vp43879dXa46bVJqXYetth2Ht69PJ8XLz2KQbXz7+W9qrPI7uX319XcBwG2QQANwIuU1jW3qiQm7U3ZL05lahuq3JgqexvdNLhvo9fZZ7XmerFHZ2uhwVjhoACaUBbVWEAFFeTPEVXPXdP5qB1VroPzgoJGr/0I4WTVMSgLf4bVztowt+e7TRbwDPZ2Vu3crjc+F2F8AmgANlYCrt986e3Cog3Ryl+YGc2LKgfKDambchOjxdXVwqLPXhRAlxZ9Le/RWb3NZNF8C1u25rB8do31WoOqUkpV23nWUKq7fnY9Pws6H+3ei8Z+cO33a6PXfhaarvBdrnxfW1TEqnZu38pddwZ7sS8WiKh2btt7hRgwLgE0ABspN6t+NHpdyV98fy4LC9idTdu2Lb7s/tr46nlB0Wcbfdkd7On9W+PVamPdcFEBzdBhaS/r5hGsoXyW3JTwg/l445y5Uxtdt5X368UErv0EqV+pgB602f5VReyk5O80X62UXVpU8M57YVIu5z4AMCYBNABrK8GHm1X9+lEIvVNrh8elddTNRPZ5tgr8s711q5AGe/3Ndk/vlJIKaJbtqYSG1ZXw8Ua719l6rfPR7rzg2m8S379V2H+6vv9zgcdSK2Zttqfru8euM8tWSNcWFUzaoftfMB4BNAArK1+eruYcfMyIEHqHVg1RBvu/tbbP81e5MfWFlSqQBq3VJ7XX3yZ7pq3o40g/l+nK74sr5xcadtfCoZVg5NqCsNnT+Wh3ur7204b7k9Ny7+RcK+au/FkFXarZF/s7t9yVgNVc+A4B4xBAA7CScjF2bVXnrAihd+erAXRpt33V8P5vz3Fj6rPn5np/Iq3Vt00bbh5zWK5VoEU7P28NwmetQVlwvb99X70Odu3XhdNyzp/UImGe9W6pmt2ign7k9+nZ3AcBxiCABmBVl74Az9KP9ojbiSfHfNBu22KQPjwZQHfSbnus84c23DzlsNy4BwaEz3yFEHq7nqyy6+Tab6zuN1Oy51zbLdXs/TpTBQ31CaABeFa5kSvsmi/7am7fY/tLLdrw9bCS3qKGz/4yFjkkKHuJTa3l4mPG+hIvgOZr3glT4DPhMysQQm/PXwLazq79AKZIFTSMQAANwFfFGC/s+Tx79tXcvj9DydKG76KzNnxeS5/9ORaDveJ+62gvsbEWr9yP9HPpx4XFUzRmJ+3hhc+sQQi9HV9cB3d47WehKTBVPgOhMgE0AE8qNyC+M0KU4PPCQGzNp9AkxnhSKj17ex8KhT77dLMxV7iXuX7fyHHVMspcp5Ts88tzPi2eMkrMWVmEIXxmHT+WaxLG82lBaeludNvhtZ+FpsBUvS73YIBKBNAAPKpUS/xodBjQ0nR78hefHJz83OkeUwLogbLNwa/2E1vb3cSOl+07LPtpwuyUzjVXwmc2cFW+CzKSzq/9BNDAlLnnBRUJoAH4i8ENK1impen29LzvuhtTX+p5m4Mx20nejviz6ce5zy0ase1z1mVHW3ewXXnRwqXtd0bV87Wf8w4wZW99d4B6BNAAPOZSJR5P2CuvD3gJN6aoQRtuVpE/t86NFA3YWgBdKv97XsjG+A5d8wMwU9pwQyUCaAC+4IYVK3ijpSmwqhHbeKqAZlXvtJNlLspr/QcTTgVvXfOzCfuIAxOnDTdUIoAG4E+lzYwqIVZxri0fLyEMrejMRQAAIABJREFUmpWxzhUCaNZxYbTonW10GMEPrtkAmJlD97ugDgE0AEOXpVUlPGfPzXxeyBe6+RhlD62UkhbcrOONiix2aUvnrHPb6DACrbhZl0ULwNRpww0VCKAB+CTGmC+u3hgN1vCuVM3DJrx25mPMuX6Y++CyFu306FZZYPGdGWYEuRJMlyzWYaEpMHUWrsL/b+9+ryK50T0Al3z8ndkIwBGYiWBwBMYRDI5gcQTGESyOwBDBZSJYiGAhggsR3OkIdI/Gam+ZYZj+o+pWSc9zDsfe/eCpLjFVav30vipAAA3Asl2falY2oSKCTQmgKeHeXWQNNk7RMnMypnTu+ckaBNDA3KmAhgIE0AAk59r1sSEtTdmUhal+TPmMEECzrnN3jD14mvKPzNWp5vJM6cAmB9agBTcwdwchBM8y2JIAGqBzufrZYizb0JKPTfgyRwmP7iJr0oabfZjsWWUuzw7ZeApAT6xZwJYE0ABc5B3tsKl3doYCr5jy+aACmnWlagYt9WjJpbk8O6QKmlW8c5eABth0BVsSQAN0LJ/j9U+/AxSg8oZ12bTQjymDEQE0m1AFTRPyXP690WSHDkMInqEA9MCaBWxJAA3QN4sHlPI+t4CEVanW6kgOSYqLMX4chmHR+/1lbT96Z7FjtxP9cY5BYR/83vFVOmQBDfjeIMJ2BNAAnXJeHBPw+8RapgolqdKUY60Kmk1ow82sqX5mj1RBswobvYDZs5kGtiOABujXmQpECrMQxboE0JTw6C6yAWe6MXeqUNknv398jQAaaIEAGrYggAbol2pVSkvVEBb0WYeFqX5M+WwQQLMJFdDsUtHnVO5k5HeYfTLv52uENkALbJqHLXzr5gH0Jy8WHBr6vzzkhcH7/JPOFP0YY/xqW9fc/vAoB2nH+d+POz4r5mzCcw5pT/q7cmNc2VJ65vw6g5v49CyE+viV9uHL99Fzb15Z1B2HAe+2v+SmHaSWequ866GA0htldDKiBufm/QA0zmYa2IIAGqBPvbdKfsiLJTcxxq0WTWKMj6NFxb8FaTnoP80/vQT+qnGAl0z5xX2fFdAPOSQevwvGwfF9jPGlEHlbK2/cyOeWvcnhdO+bpJ47cYY4M6WT0WoWL/wdf2nuf/ysK8uRzbor+TFtxs3fh+A5FfJAC3Rtgy0IoAE6k1v2ve9w3FPl2VX62dUiSQ630895DgDOc0DbcsVKqig7jTGqamUVdhP3Y7Iv7umZHkKY6j+/DJiXgcXt8N/n+yyMKnz/ds15k9Ryo1SvgXT6/JcT/vfvJvxvr+K4kTnHSyHi3BTbiJLmWcLRzzyMOhmln8cS8/38vWnc4ehYd4nPnDkPGoCGWbOALYQYo/sH7EQIobUHzg9zWoBeCiGkRYI/6rianUjB80WM8aqGi8kLWeczaRe7qesYYzVV9g0+e1pyF2MsVh1hrKv2FGOc7PysEMLtFqHAsjX27agt9lSVy1XKx0mc5Z+egq1FjLHZqoYt/17UpOi7Yu5CCFedbiYde8qdILbuZrSJvLH0JD8ze+8oMen7/WvM/apW9B3b0DsNmJkY42S7naF1AmhgZwTQdQghpMWaH+d23RtI1TLntQTPz+XF/qtGv0RXtaBvYapqRRctjXXdpvzivmIgMw6alxVy2i8/kzeqXXQURL9t9fdAAN2evJHxsdPznxejbkbV/J3Nc/rTvMG018r0vT1Hzf3qVnLuJ4AG9qjZ7wswtW/cYYB+5EWrHsLn69Qqr9bwecgtY/Ni6i8VXE5pB7kyBL4kLSL/pp1VF9JY/z4Mw3cTf9jnrVYf8rsgPWN/GIbhH2mzQ3ruxhhTV4wbiwgvS+/OvDHklzx+rfMcYk5aP8rlJWnz0M9pc2OM8by2Z3ee01/m5+YPFbTe34dqOh9RhUWeg0099wPYFedAw4acAQ3Ql9PGP23VVc8vSQtWIYT73EawpQXF0wbOa6S8p1xZedNTe+NOLc/dv9zRWN8s22fPsTtJjfL76Sbf25ZbzO6tdSxsoPW5/Ngc5/Xp/XOSz9i/7Kg997ICnL4t8u/9ruZ+AEDlBNAAfWm5fWH6wnsyx4q2tFiVF6puGwqhtcpkrKqz2JnUXsY6P/tteiksVfbl99NVwx1UvK+Ykx46GQ25evJ8riFWDqKPQwhp092vFVzS1A5T9yOdRbplnt+PZYeH8WbPx7wJdNxR5iRv8Ov1WII5MravO352b4AVCaAB+tJq1cRsw+eldO353M3/qeOKtuZ8Lob8RfZCRWoXLD42KgdApw2fvagFN7MQQuih+jnN6c/SMQkVXMvW0pEPo04SrS/Wn6mC7o65X7ue8sbO+xy63a+wIeiz53Y+I/8kPx+sD9ThIY/rY6GxPe+k24cW3LAhATRAJ/KZvK2eGTfr8HkpLbaFEH5rpVIiVc0JHrsleO6Hse7H8miF1kKU3s7TZb5ar9af/YbSl+RNpsvKqZYX6XWT6MddbrPdxEYRPnnIz6hPP6W6T6ROOrmLzlWHRxPU4m4ZNBtbYB++cdcButHqosDPLS1UpUqJUfujubMQ1Z/0u/tDjNHmg/YZ684sK6Fb/NR54Qxq13IFdAo/mm3hnJ+fJ/lztur7EIIKsbaN537C53lb5KMOfh6G4bsYY3r+pmMPbqY6+iB9X0h/zjAMv3d0n/fhKd/jn4Zh+Ef++3qxo7G9rv7uADunAhqgHy0urn5otOVXamP0nwquY1vamvZDFWw/jHXHciVfWtT6Z2N3QWhC1XKry1ZbOC/bbj9WcC2TSQv/ebNLy5XQJy+1amX2zP3a8JT/ft7scyxT0B1CSM/7fzV2f/fpQ3633OzzXRpjPMtj20RHv2esbcGGVEAD9KO1CdMinyXUnFz90cLuUZP09qmC7YexZukiv4Nb4n1F7Vqu0m+u7faXjCqhn+q8wq3pJtEWc7/5W1bDvo0xHuUq572PZYzxMoembO5DrmBPVc6n6Z7WsJErd/RrcWxtVoUNqYAG6ECjVRPnU7UQqkSauL+f+Wc4TK34Gh+nXqmE6MdTrkwz1nySq/huGnhHjVlUonatbpL4pZfweSk/Q08b6Xb0nAC6DU/5u7Zq9nlaVjpfVf58TcUEKTA9qOBa5uLDqIq95jUWYwv8RQU0QB9aW7R6arT19l/y7tUWdo6qKmvLg0qIbjzlM/aPjDUvuGzspnhXUbsWg727XAXXnRwK/dbg5261tXgvxnM/4fO8LM90/mlU6Vz15p4coHb5DljTw7NK56vaN/gbW2BMAA3Qh9YWVi8quIZdaCFkt6jfhuWC1LEwsnnjxcemN/qwubyo2WoLWahRi8Fek0fprOGyxedoPueaeVmY+83WMpxMY3c2w40DQsqXLVunf5e/f1cfOr/AswT4RAAN0IeWFgIWvXwxzl8g537O5lEF18DmFrk9pgWp9i1yNdaxsWZFLVVHvavgGuBFjQZ61zWcVblPOUxocVOtzafzsZz7mefPy7La+e2Mw8lP8nU7C/q/7p5Vsc/2PZmv/a6CSwH2TAAN0IeWQsDevhzPfYHfItQ8jRek7Exv3+95rC+c2c4adEOA3WhxM18v3YxelUO/1qqgzf3n4drcb3aenlU7t3J+fu/zycWo2vmksfb3vY8tdG8QQAN047ChD9pbAD33SbtFqPm5zlWwFqTa9yEvdpwbazZgUQl2o7W5VPfVz8+0FsbrflS3uzz3OzP3m400X/9h2ZGqwXFrJUhf13hDwayrnV/huwIggAZoXQihpUWrp4Z2+q5q7pP2gwqugdXc5VZuZxaGm/eQF7JOjTWbygugzVTuObeUirUWQOus8nctHLkz5kiDOi3nfifmfrNxnTcLpPl6y0Feb+s7d+Mz1xvfCOJZAwigATrwpqGP2N0OyrxAMOtFqcY2QbToKZ81ddLhBo/ePOUFj+PGF7LYHQtLML2WKkp73Ez6qhw+tNRyNc39VUHXY2HuNyvLY5D+0cum4I4q8e9Gm0C66OpnswswCKAButBSRU+vX5rnvlDX0iaIlnxa4Mi7r5ta+ORFv+XW6r0dY8C0BEkwvZaO0jHfeFlr90UAXYffcntfc7/6LUbj5RiktoyDZ5tAgO4IoAGYk14Xuuf+uVVA1+d6ucDR+43owPKcZ4tZTMHvFEyowS4ygrAXNLgR0Nx/v+7M/WZjfA5wz+P1UME1lCZ4Bro3CKAButBMBXTHLfvm/kVUBXQ9lue/nVmQat6Tc57ZgZaeIyr2qFFLc6iF9tuvuqv42tZl7r8fT855no1U8fxLJ+cAr6Klz7888kjwDHRvEEADMCMt7opd1dy/uFiE2j/nv/Vj3FrdWDO1lsIkATQ1aqmSVPj8upbe2Z6nu2XuNy8PueL5svcb0aCH5aaC3m8EwJIAGqB9rSwA9L4reM604duv353/1o0P+ZxnrdUB2tDSJj7B2OsE0GzC3G9+Pqp4bpZxBXjmWzcEoHmHjXzAnhetfJFhE2l3/Zl2l114ymNtcR+gLS0F0OYjr3N/WIe5HwBQPRXQAFA5ASJrWp4pdux3p3laLgK0raUuMs6kfUVjFZHvKriGVpn7AQCzoQIaoGEhhJaqJlQBz5dFqN25HobhXFu3LnzIY21BH4Dq2RS3kjvzZl5xl6uezf0AgFkQQAO0raWqCYtW8GXa8PXjKQfPN73fCKpgswuwioW7BBtb5Hm+uR8AMCtacAMAzJs2fP34PW0ssgBJLVQ0wuRa2UzqWbGaZuZyIYSjCi6jBWnud2TuBwDMkQpoAIB50oavHw95rC3gA/TlwHgzU0fO/d7KQ+54Y4MpADBbKqABAOYlteH7OcZ4InxuXhrrX2KMx8JnAIDmLXJ3o2PhMwAwdyqgAYDJhRBOLKIU8SFXwjp3tX0q3AFohU1UqzG/65u5HwDQFAE0AMA8/B5jPDdWXbhLFe693wQAmiFYXY2gvl8P5n4AQGu04AYAmAeLtwAA0B7zfACgOQJoAAAAAAAAAIoQQAMAAAAAAABQhAAaAAAAAAAAgCIE0AAAAAAAAAAUIYAGAAAAAAAAoIhv3UYAZuI4hGCsAAAAAACgYgJoAObiX0YKAAAAAADqpgU3AAAAAAAAAEUIoAEAAAAAAAAoQgANAAAAAAAAQBECaAAAAAAAAACKEEADAAAAAAAAUIQAGgAAAAAAAIAiBNAAAAAAAAAAFCGABgAAAAAAAKCIb91GAACA7YUQTkb/keNhGN48+4++9P8BAAAANEUADQAAsIIQwpscIi+D5JP8z+/dPwAAAIA/CaABAABekCuaj3PQnP556D4BAAAAvE4ADQAA8GfgfJTD5tP8zwP3BQAAAGA9AmgAAKBbua32Wf7RShsAAABgSwJoAACgO7m9dgqd3xt9AAAAgHIE0AAAQDdCCCl0PlftDAAAADANATQAANC8XPF8KXgGAAAAmJYAGgAAaFYI4WgYhqthGN4ZZQAAAIDpfeMeAwAALQohpFbb98JnAAAAgN1RAQ0AADQlhPBmGIYbwTMAAADA7gmgAQCAZoQQjodhuB2G4cCoAgAAAOyeFtwAAEATQghnwmcAAACA/VIBDQAAzF4On/8wkgAAAAD7pQIaAACYNeEzAAAAQD0E0AAAwGyFEE6FzwAAAAD1EEADAACzFEI4HobhyugBAAAA1EMADQAAzE4I4c0wDDfDMBwYPQAAAIB6CKABAIA5SpXPh0YOAAAAoC4CaAAAYFbyuc8/GjUAAACA+gigAQCA2citt537DAAAAFApATQAADAnl859BgAAAKiXABoAAJiFEMLxMAzvjRYAAABAvQTQAADAXFwaKQAAAIC6CaABAIDqhRBOhmF4Z6QAAAAA6iaABgAA5uDMKAEAAADUTwANAABULYRw5OxnAAAAgHkQQAMAALVT/QwAAAAwEwJoAACgdgJoAAAAgJkQQAMAANUKIZwOw3BohAAAAADmQQANAADU7NToAAAAAMzHt8YKgJm4Hobh0WDNlrEDNiWABgAAAJgRATQAc3EVY7w1WgD9CCEcD8NwYMgBAAAA5kMLbgAAoFaqnwEAAABmRgANAADU6sTIAAAAAMyLABoAAKjVOyMDAAAAMC8CaAAAoDr5/GcAAAAAZuZbAwYAAFSol/bbi2EYbodhuM8/H4dheIwxPlZwbV8VQoiVXyIAAACwYwJoAACgRi1XQKfQ+Sr9xBjvK7geAAAAgGIE0AAAQI2OGhyVFDxfxBgvK7gWAAAAgEkIoAEAgBq9a2xUHoZhOJ1La20AAACATQmgAQCAqoQQ3jQ2Iil8PokxfqzgWgCoU4udPwAA6NQ3Bh4AAKhMS+c/L4TPQOdaPtO/JAE0AADNEEADAAC1aWkR/lz4DHSuta4WAADAVwigAQCA2rQSQD/EGK8quA4A2CUbrwAAOieABmAuVE4A9KOVZ/5lBdcAzNdDI2NnHr+aZrp/xBjvK7gMAAD2SAANwFw4Ow6gH608828quAZgvlqpIv2+gmuYA2dAAwDQDAE0QNu0PgOA/bhz9jPAn0IIqqC/TgANAEAzBNAADdP6DAD25tatB7bU0iYW3Yy+7rD2C1zR0yyuEgCASQmgAZgLi1YA/XjXwCd9rOAagHlraTOpufwrQggn1V7c+rz/AAAQQAMwG9r2ATAnFuAB/ksA/Tr3BwCApgigAdr30MgntCgDwJw4BgPYVkvPkZYqfKfQ0ncdR1AAACCABuhAK2fHHVRwDQCwkhhjS2e3AvvR0nPkMIRwVMF11EpADwBAUwTQAMxGY2ejAQDAa1rrpGAu/4IQQqp+PqzuwjanAhoAAAE0QAdaWgDQhhsAgC402EnhtIJrqJFgHgCA5gigAZgTizMAAPTkrqHP+mMI4U0F11Gb85Y+TIxRBTQAAAJogA60tAAggAYAoCePjX3WswquoRr5iKGW2m8/VXANAABUQAAN0L6WWvcd5DPSAACgB60F0E1V+xbQWiDf2u8rAAAbEkADNC7GeN/YJ1Q1AQBAL1prZ3wYQjCf/7P6+WgYhvcVXEpJ2m8DAPCJABqgDy21Qjut4BoAAGAXWttMmlxUcA01uGzwM7X4+woAwAYE0AB9aKkVmqoJAAC6EGP82OC5umk+33UInc9+/rGCSylNAA0AwCcCaIA+tNYKTQANQNVya1WAEloM9X4NIRxXcB07F0J4MwzDVYMfbRFjdAY0AACfCKAB+tDaotW7EIJW3ADUTAANlNLqubpXOYztTWq9fdjgZ3b+MwAAfxFAA/ShxaqJy04XrACYBwE0UEqrwd73jZ6D/EX5KKH3lV7etgTQAAD8RQAN0IHcCm3R2CdNVQNdnx0H0LAWzjvtsrUsUF6M8b7BufzS+xBCi+2oP5PD5z8qu6ySBNAAAPxFAA3QjxYXBP6ZF3IAaEsLZ0ieVHANQDtaDveaD6E7CJ8XeaMEAAB8IoAG6EerCwJ/hBBUme1Aanmezt5OC4QhhEf3HeBV34cQmm7DbRMY7FTr1aUphL5p8YidEMJF4+FzclPBNQAAUBEBNEA/Wl4UuA0hqDSbQAqZQwjnIYS06Pl/wzD8Tz637lB7WWBCLVRAJ6cVXENx6Z0bQrjvIFCBmvQQ8P2Y5/VNzDHz5s00h/61gsuZmvbbAAD8jQAaoBONnx13MAzDv1VibS9V66X7uKxyHobhP8Mw/GsYhncv/McF0MBUWgmgzyu4hmJy8JxChn+nCu9GPhbMQowxPRcfOhit9Gz5T6oannM1dNrAmd9lL82hW6QCGgCAvxFAA/Sl9Z3pf7Taum8qLwTO/5sr2pZVzq9RdQ5M5WMjd/awhc1R+T1xn4PnXsIUqFHT5yQ/k6qGH+f2DM0bdR7zBs6DCi5pFz7EGFt5bwMAUIgAGqAvvbTum91i1a7kRbHzHNR/XDNwfk71GzCV+4bu7OUcN0bl1rEXOUj5wzMfqtBblelB3mD6MT+PqjxXPz8vz/Lz8t8bzKnnTvUzAACf+dYtAehKL2dzLRerLoZhSD83Pe7Kz+diH49+iocH6c+IMTrzDSitlRbcQ34n3cyla0QI4TSfXf2+gssBRlIb7hDCQ4cbQg5yRfSvIYQP+Zl6m9uS70XeWHTiefmJABoAgM8IoAE60uGi1WGu2krVZ2lh5DKfhd2UXA1ylBfBjvO/72qMjzva2ADsSH5ftXS736WjDtKZ0DVuiAohpGf5Wf7ppWUszNVVbu/cqx/zz5C/19zmrhn3U87z83x7ubHzxHEEf7nWfhsAgJcIoAH60+Oi1UGuTHgfQnjKC1W3+66cWMcoZF7+7Dpo/pLjPf/5QLvuGlvgT++h49SmtYbNUKNK55MO28XCnPUeQI99P54L541LKZT+ONog+bhmV403o/ntcf7fwuYvU/0MAMCLBNAA/bnpfNHqcBlGD38uVC1y1cTtaIHqcZfBdG6VPXxhweuo8mBAAA1M5bHBRf8UlPwnhHCdjojYw7vmROUezFuqNs3PkN7bPn/JMpD2nJveU4xRAA0AwIsE0ACdyW1NPyxb1/GpOvrd80WqUevXu9H//TGH1etYViyP1R4qr6O3MwiB3blvOGBZduUofpZpPpf0eNQp48SzGppzJYCmApcGAQCALxFAA/TpRgC9sufVE+7bM6mqLsboHGigtObO7H/B+CzTZUeO+7zh6WttY09e+HcVf9CBNO8KIbR2TAHzssgbIQAA4EUCaIAOxRivQggXznykkJPROXsAReSApaeb+WJHDoAvuPK8YI+uUjt4AwAAwJd8484AdMuOdUpxDjQwlTt3FuBzaUNpOoPXrWFPtN8GAOBVAmiAflk0oBQBNDCVHtpwA2zqwp1jD65jjK8dEQEAAAJogF7llmnXfgEo4DCE8MaNBCZw46YCvEwVNHuwsPEBAIBVCKAB+mbxgFJUQQPFpXOg3VWAV525PezQpepnAABWIYAG6FhePFAFTQkn7iIwkQ9uLMDL8kYd5+WzCwvHOAEAsCoBNAAXeTEBtqECGpiKNtwAr1MFzS6c52OcAADgqwTQAJ3LVdB2srMtATQwFQE0wCvyfP4394gJ3eUzxwEAYCUCaACGHEA/uRNs4TCEcOQGAqXlaittuAFeEWO8MJ9nIgtV9gAArEsADcBycf/cnWBLqqCBqaiCBvi6U/eICVzkKnsAAFiZABqAT2KMNyrM2JIAGphEbvu5cHcBvizGeK8VN4Wl1tuOawIAYG0CaADGzizws4UTNw+YkAVwgK/Irbgf3CcKWKiqBwBgUwJoAP6SW3E734tNqYAGpnTl7gKs5MSmUgo4zd8PAQBgbQJoAP4mt+L+3V1hAwchhCM3DphCPn/y2s0FeF0ODVWuso1fYoy37iAAAJsSQAPwmRjjudZ9bEgVNDClC3cX4OtyePizW8UGrp37DADAtgTQAHzJqdZ9bMA50MBkVEEDrC7GeKWzEWu6izE6kgkAgK0JoAF4UV7kd34c61IBDUxNFTTAinJnIxt3WMWD1u0AAJQigAbgi2KM98MwnLtDrOGdmwVMKW+Q+s1NBlhNrmgVQvOaFD6f5PPDAQBgawJoAF6VW/c5P46VhRBUQQNTS2dTPrnLAKsRQvMK4TMAAMUJoAH4KiE0axJAA5PKi+TOqARYgxCaFwifAQCYhAAagJUIoVmDABqYXIzxVpACsJ4cQv/utjEMwwfhMwAAUxFAA7CyHEL/NAzDwl3jFQJoYFfOteIGWE+M8dzG0u5dxxhPhc8AAExFAA3AWmKMN2mnvBCaV7xzc4BdyAvnp95JVXnKLV2BiuWNpW89P7v0c66EBwCAyQigAVhbjPF+GIYjC8x8SQjhxM0BdiG/k87d7Cr8nrtgXPV+I2AORnP6OwPWhbRB6G3efAAAAJMSQAOwkVR1FmM8doYcX6ANN7AzeTHd+2h/0oa0H1Jb31yVftPrjYC5yXP6tHHwN4PXtHTe83HedAAAAJMTQAOwlXyGnHOheU4ADexUfh9du+s7tcitXFOocbv8g2OMj87mhnmJMV6kjST+7jYnPad/ct4zAAC7JoAGYGv5XOijvLMeBgE0sA/5TEsh9PQWuVry6JVWrre7vCBge3kjybFq6GZ8yM9pXSkAANg5ATQAReT2fae5GlrlRN9SK9bL3m8CsB9C6Mld5zauF1+pphN4wAzlOX2qhn7rbOjZesrHIqh6BgBgbwTQABSVd9gvKye05e7HUz5/9bvcivVLFXEAk8shtDOhy7rOz/iz3GL7a1RAw4yls4Lz2dA2l87Hp+4UMcaj8bEIAACwDwJoAIobVU4cq0Jr2jJ0fpsXus5XDCUAJpfPhP7Znd7KYoPg+ZNcdfdQ58cCVpU2l6Z5Xn6eCqLrND4W4aL3mwEAQB0E0ABMJi1U5yq07wTRzXh4IXS+7/2mAHXK3RjeCk3WNg4z1gqen9GGGxqRnqeC6Or8LXjWbhsAgJoIoAGY3AtBtNbc8/JhGIZfRu21hc7AbOTn1XF+lvG6tMno5xjjm0Jhhhaw0JhnQbQuB/vxJHgGAKB2AmgAdmYURB/lQFP1RJ2WVc4/xRhDjPE0xnipvTYwV/loiFNnmb5o2Wb7bekz/PMZpDadQYNyEJ029/yg09HO3OX5ueAZAIDqCaAB2LkcBFzm6om3qqL37iGPQapk+ceoylnrVKAp+bl2nCvHen/vfBhVO59N2NlCFTQ0LG00yRtM/6EqehLLaufUiejE/BwAgLn41kgBsE95wTstWg0hhFSdtvw5MDCTSdUT9zkUuFU9AfQkP/MuQgip0vdiGIb3HX38D/lc5psdPvvTu+bHHf1ZwJ7kZ0p6rl6FEI7yfD7N8b83Jmt7ys/qK8feAAAwVwJoAKqRd/R/2tUfQjjJC1cnFq628pDD5vscNlvEAsjHQqRwJIRwkUOS8wY3Pz3lAPhmjxuO0p/9rz38ucCe5OfrZfrJYfR4Xm+T6cvuRhuEHHsDAMDspXMdjSIAVRstXJ3k1qkC6c8tRlXNadHqXtgMsJ4QwlkOSeZasbtYdreclJEAAAAIG0lEQVSw6QioUQjheDSv7zmQvhs9qx1VAABAcwTQAMxOCOFNDqKXgXT6OexkJFNF88dR0LwMm7XRBigkv2dOZxBG63IBzFoOpMc/7xoc0bvlnD3P2wXOAAA0TwANQDNy2+6j/JMWsJZB9VwqK5ZVzEP+58fxP4XMAPuR3y/jThy7fq8sRkHzowADaFnufrTsgLSczx9VvuF0MXpGL8PmRxuDAADolQAagC7k6oo3o0Ws4dm/L5UKFu6e/e+Po3B5GAXLg3AZYF5GnTjGm53e5A+xbvXe+H2xfDf8tQFJeAHwX6Pn75AD6uGFfx8Kzemfz+f/Nn/P//7ozGYAAPicABoAAAAAAACAIr5xGwEAAAAAAAAoQQANAAAAAAAAQBECaAAAAAAAAACKEEADAAAAAAAAUIQAGgAAAAAAAIAiBNAAAAAAAAAAFCGABgAAAAAAAKAIATQAAAAAAAAARQigAQAAAAAAAChCAA0AAAAAAABAEQJoAAAAAAAAAIoQQAMAAAAAAABQhAAaAAAAAAAAgCIE0AAAAAAAAAAUIYAGAAAAAAAAoAgBNAAAAAAAAABFCKABAAAAAAAAKEIADQAAAAAAAEARAmgAAAAAAAAAihBAAwAAAAAAAFCEABoAAAAAAACAIgTQAAAAAAAAABQhgAYAAAAAAACgCAE0AAAAAAAAAEUIoAEAAAAAAAAoQgANAAAAAAAAQBECaAAAAAAAAACKEEADAAAAAAAAUIQAGgAAAAAAAIAiBNAAAAAAAAAAFCGABgAAAAAAAKAIATQAAAAAAAAARQigAQAAAAAAAChCAA0AAAAAAABAEQJoAAAAAAAAAIoQQAMAAAAAAABQhAAaAAAAAAAAgCIE0AAAAAAAAAAUIYAGAAAAAAAAoAgBNAAAAAAAAABFCKABAAAAAAAAKEIADQAAAAAAAEARAmgAAAAAAAAAihBAAwAAAAAAAFCEABoAAAAAAACAIgTQAAAAAAAAABQhgAYAAAAAAACgCAE0AAAAAAAAAEUIoAEAAAAAAAAoQgANAAAAAAAAQBECaAAAAAAAAACKEEADAAAAAAAAUIQAGgAAAAAAAIAiBNAAAAAAAAAAFCGABgAAAAAAAKAIATQAAAAAAAAARQigAQAAAAAAAChCAA0AAAAAAABAEQJoAAAAAAAAAIoQQAMAAAAAAABQhAAaAAAAAAAAgCIE0AAAAAAAAAAUIYAGAAAAAAAAoAgBNAAAAAAAAABFCKABAAAAAAAAKEIADQAAAAAAAEARAmgAAAAAAAAAihBAAwAAAAAAAFCEABoAAAAAAACAIgTQAAAAAAAAABQhgAYAAAAAAACgCAE0AAAAAAAAAEUIoAEAAAAAAAAoQgANAAAAAAAAQBECaAAAAAAAAACKEEADAAAAAAAAUIQAGgAAAAAAAIAiBNAAAAAAAAAAFCGABgAAAAAAAKAIATQAAAAAAAAARQigAQAAAAAAAChCAA0AAAAAAABAEQJoAAAAAAAAAIoQQAMAAAAAAABQhAAaAAAAAAAAgCIE0AAAAAAAAAAUIYAGAAAAAAAAoAgBNAAAAAAAAABFCKABAAAAAAAAKEIADQAAAAAAAEARAmgAAAAAAAAAihBAAwAAAAAAAFCEABoAAAAAAACAIgTQAAAAAAAAABQhgAYAAAAAAACgCAE0AAAAAAAAAEUIoAEAAAAAAAAoQgANAAAAAAAAQBECaAAAAAAAAACKEEADAAAAAAAAUIQAGgAAAAAAAIAiBNAAAAAAAAAAFCGABgAAAAAAAKAIATQAAAAAAAAARQigAQAAAAAAAChCAA0AAAAAAABAEQJoAAAAAAAAAIoQQAMAAAAAAABQhAAaAAAAAAAAgCIE0AAAAAAAAAAUIYAGAAAAAAAAoAgBNAAAAAAAAABFCKABAAAAAAAAKEIADQAAAAAAAEARAmgAAAAAAAAAihBAAwAAAAAAAFCEABoAAAAAAACAIgTQAAAAAAAAABQhgAYAAAAAAACgCAE0AAAAAAAAAEUIoAEAAAAAAAAoQgANAAAAAAAAQBECaAAAAAAAAACKEEADAAAAAAAAUIQAGgAAAAAAAIAiBNAAAAAAAAAAFCGABgAAAAAAAKAIATQAAAAAAAAARQigAQAAAAAAAChCAA0AAAAAAABAEQJoAAAAAAAAAIoQQAMAAAAAAABQhAAaAAAAAAAAgCIE0AAAAAAAAAAUIYAGAAAAAAAAoAgBNAAAAAAAAABFCKABAAAAAAAAKEIADQAAAAAAAEARAmgAAAAAAAAAihBAAwAAAAAAAFCEABoAAAAAAACAIgTQAAAAAAAAABQhgAYAAAAAAACgCAE0AAAAAAAAAEUIoAEAAAAAAAAoQgANAAAAAAAAQBECaAAAAAAAAACKEEADAAAAAAAAUIQAGgAAAAAAAIAiBNAAAAAAAAAAFCGABgAAAAAAAKAIATQAAAAAAAAARQigAQAAAAAAAChCAA0AAAAAAABAEQJoAAAAAAAAAIoQQAMAAAAAAABQhAAaAAAAAAAAgCIE0AAAAAAAAAAUIYAGAAAAAAAAoAgBNAAAAAAAAABFCKABAAAAAAAAKEIADQAAAAAAAEARAmgAAAAAAAAAihBAAwAAAAAAAFCEABoAAAAAAACAIgTQAAAAAAAAABQhgAYAAAAAAACgCAE0AAAAAAAAAEUIoAEAAAAAAAAoQgANAAAAAAAAQBECaAAAAAAAAACKEEADAAAAAAAAUIQAGgAAAAAAAIAiBNAAAAAAAAAAbG8Yhv8HIQK6mJ8mjGUAAAAASUVORK5CYII=;" parent="1" vertex="1">
          <mxGeometry x="490" y="-160" width="100" height="105.74" as="geometry" />
        </mxCell>
        <mxCell id="s-n31F7pUSmzYccIUBGP-14" style="edgeStyle=orthogonalEdgeStyle;rounded=0;orthogonalLoop=1;jettySize=auto;html=1;" parent="1" source="s-n31F7pUSmzYccIUBGP-13" target="BpQwVgq8ceSTI6zG5UUR-1" edge="1">
          <mxGeometry relative="1" as="geometry" />
        </mxCell>
        <mxCell id="s-n31F7pUSmzYccIUBGP-13" value="" style="dashed=0;outlineConnect=0;html=1;align=center;labelPosition=center;verticalLabelPosition=bottom;verticalAlign=top;shape=mxgraph.weblogos.github" parent="1" vertex="1">
          <mxGeometry x="321" y="-160" width="75" height="75" as="geometry" />
        </mxCell>
        <mxCell id="s-n31F7pUSmzYccIUBGP-15" value="GitHub" style="text;html=1;strokeColor=none;fillColor=none;align=center;verticalAlign=middle;whiteSpace=wrap;rounded=0;" parent="1" vertex="1">
          <mxGeometry x="328.5" y="-80" width="60" height="30" as="geometry" />
        </mxCell>
        <mxCell id="2CMo726lE90ph8KH67Ru-9" style="edgeStyle=orthogonalEdgeStyle;rounded=0;orthogonalLoop=1;jettySize=auto;html=1;entryX=0.5;entryY=1;entryDx=0;entryDy=0;" parent="1" source="2CMo726lE90ph8KH67Ru-7" target="2CMo726lE90ph8KH67Ru-6" edge="1">
          <mxGeometry relative="1" as="geometry" />
        </mxCell>
        <mxCell id="2CMo726lE90ph8KH67Ru-7" value="" style="sketch=0;outlineConnect=0;fontColor=#232F3E;gradientColor=none;fillColor=#232F3D;strokeColor=none;dashed=0;verticalLabelPosition=bottom;verticalAlign=top;align=center;html=1;fontSize=12;fontStyle=0;aspect=fixed;pointerEvents=1;shape=mxgraph.aws4.users;" parent="1" vertex="1">
          <mxGeometry x="448.5" y="660" width="78" height="78" as="geometry" />
        </mxCell>
        <mxCell id="2CMo726lE90ph8KH67Ru-8" value="開発者&lt;br&gt;リモートデスクトップ接続（RDP）" style="text;html=1;strokeColor=none;fillColor=none;align=center;verticalAlign=middle;whiteSpace=wrap;rounded=0;" parent="1" vertex="1">
          <mxGeometry x="383.75" y="738" width="207.5" height="30" as="geometry" />
        </mxCell>
        <mxCell id="2CMo726lE90ph8KH67Ru-14" style="edgeStyle=orthogonalEdgeStyle;rounded=0;orthogonalLoop=1;jettySize=auto;html=1;" parent="1" source="2CMo726lE90ph8KH67Ru-12" target="s-n31F7pUSmzYccIUBGP-13" edge="1">
          <mxGeometry relative="1" as="geometry" />
        </mxCell>
        <mxCell id="2CMo726lE90ph8KH67Ru-15" style="edgeStyle=orthogonalEdgeStyle;rounded=0;orthogonalLoop=1;jettySize=auto;html=1;" parent="1" source="2CMo726lE90ph8KH67Ru-12" target="BpQwVgq8ceSTI6zG5UUR-1" edge="1">
          <mxGeometry relative="1" as="geometry" />
        </mxCell>
        <mxCell id="2CMo726lE90ph8KH67Ru-16" style="edgeStyle=orthogonalEdgeStyle;rounded=0;orthogonalLoop=1;jettySize=auto;html=1;" parent="1" source="2CMo726lE90ph8KH67Ru-12" edge="1">
          <mxGeometry relative="1" as="geometry">
            <Array as="points">
              <mxPoint y="-211" />
              <mxPoint y="662" />
            </Array>
            <mxPoint x="350.906009526434" y="662" as="targetPoint" />
          </mxGeometry>
        </mxCell>
        <mxCell id="2CMo726lE90ph8KH67Ru-12" value="" style="sketch=0;outlineConnect=0;fontColor=#232F3E;gradientColor=none;fillColor=#232F3D;strokeColor=none;dashed=0;verticalLabelPosition=bottom;verticalAlign=top;align=center;html=1;fontSize=12;fontStyle=0;aspect=fixed;pointerEvents=1;shape=mxgraph.aws4.users;" parent="1" vertex="1">
          <mxGeometry x="36" y="-250" width="78" height="78" as="geometry" />
        </mxCell>
        <mxCell id="2CMo726lE90ph8KH67Ru-13" value="管理者" style="text;html=1;strokeColor=none;fillColor=none;align=center;verticalAlign=middle;whiteSpace=wrap;rounded=0;" parent="1" vertex="1">
          <mxGeometry x="20" y="-160" width="110" height="30" as="geometry" />
        </mxCell>
        <mxCell id="2CMo726lE90ph8KH67Ru-19" value="" style="sketch=0;aspect=fixed;pointerEvents=1;shadow=0;dashed=0;html=1;strokeColor=none;labelPosition=center;verticalLabelPosition=bottom;verticalAlign=top;align=center;fillColor=#00188D;shape=mxgraph.mscae.enterprise.key_permissions" parent="1" vertex="1">
          <mxGeometry x="374.88" y="650" width="26" height="50" as="geometry" />
        </mxCell>
        <mxCell id="2CMo726lE90ph8KH67Ru-20" value="RDP用キー" style="text;html=1;strokeColor=none;fillColor=none;align=center;verticalAlign=middle;whiteSpace=wrap;rounded=0;" parent="1" vertex="1">
          <mxGeometry x="328.5" y="702" width="118.75" height="30" as="geometry" />
        </mxCell>
      </root>
    </mxGraphModel>
  </diagram>
</mxfile>
